<svg width="292" height="195" viewBox="0 0 292 195" fill="none" xmlns="http://www.w3.org/2000/svg">
<path d="M171.742 28.6199H137.691V117.746H171.742V28.6199Z" fill="#EBEBEB"/>
<path d="M171.739 28.6199H154.713V117.746H171.739V28.6199Z" fill="#E0E0E0"/>
<path d="M153.6 18.0261H141.577V28.6199H153.6V18.0261Z" fill="#EBEBEB"/>
<path d="M153.6 18.0261H150.734V28.6199H153.6V18.0261Z" fill="#E0E0E0"/>
<path d="M172.739 28.001H134.853V28.62H172.739V28.001Z" fill="#E0E0E0"/>
<path d="M147.292 33.2373H144.411V39.3148H147.292V33.2373Z" fill="white"/>
<path d="M154.713 41.7013C154.713 41.7675 150.901 41.8181 146.202 41.8181C141.503 41.8181 137.691 41.7675 137.691 41.7013C137.691 41.6351 141.499 41.5845 146.202 41.5845C150.905 41.5845 154.713 41.6584 154.713 41.7013Z" fill="#E0E0E0"/>
<path d="M164.466 33.2373H161.585V39.3148H164.466V33.2373Z" fill="#F5F5F5"/>
<path d="M171.887 41.7013C171.887 41.7675 168.075 41.8181 163.376 41.8181C158.677 41.8181 154.861 41.7675 154.861 41.7013C154.861 41.6351 158.673 41.5845 163.376 41.5845C168.079 41.5845 171.887 41.6584 171.887 41.7013Z" fill="#EBEBEB"/>
<path d="M164.466 45.3066H161.585V51.3841H164.466V45.3066Z" fill="#F5F5F5"/>
<path d="M171.887 53.7667C171.887 53.8329 168.075 53.8835 163.376 53.8835C158.677 53.8835 154.861 53.8329 154.861 53.7667C154.861 53.7005 158.673 53.6499 163.376 53.6499C168.079 53.6499 171.887 53.7044 171.887 53.7667Z" fill="#EBEBEB"/>
<path d="M164.466 57.7344H161.585V63.8119H164.466V57.7344Z" fill="#F5F5F5"/>
<path d="M171.887 66.1866C171.887 66.2489 168.075 66.3034 163.376 66.3034C158.677 66.3034 154.861 66.2489 154.861 66.1866C154.861 66.1243 158.673 66.0698 163.376 66.0698C168.079 66.0698 171.887 66.1321 171.887 66.1866Z" fill="#EBEBEB"/>
<path d="M164.466 70.1655H161.585V76.243H164.466V70.1655Z" fill="#F5F5F5"/>
<path d="M171.887 78.6454C171.887 78.7116 168.075 78.7622 163.376 78.7622C158.677 78.7622 154.861 78.7116 154.861 78.6454C154.861 78.5792 158.673 78.5325 163.376 78.5325C168.079 78.5325 171.887 78.5636 171.887 78.6454Z" fill="#EBEBEB"/>
<path d="M164.466 82.2388H161.585V88.3163H164.466V82.2388Z" fill="#F5F5F5"/>
<path d="M171.887 90.7145C171.887 90.7768 168.075 90.8313 163.376 90.8313C158.677 90.8313 154.861 90.7768 154.861 90.7145C154.861 90.6522 158.673 90.5977 163.376 90.5977C168.079 90.5977 171.887 90.6366 171.887 90.7145Z" fill="#EBEBEB"/>
<path d="M164.466 94.3628H161.585V100.44H164.466V94.3628Z" fill="#F5F5F5"/>
<path d="M164.466 106.646H161.585V112.723H164.466V106.646Z" fill="#F5F5F5"/>
<path d="M171.887 102.827C171.887 102.889 168.075 102.94 163.376 102.94C158.677 102.94 154.861 102.889 154.861 102.827C154.861 102.764 158.673 102.71 163.376 102.71C168.079 102.71 171.887 102.761 171.887 102.827Z" fill="#EBEBEB"/>
<path d="M147.292 45.4897H144.411V51.5672H147.292V45.4897Z" fill="white"/>
<path d="M154.713 53.9498C154.713 54.016 150.901 54.0666 146.202 54.0666C141.503 54.0666 137.691 54.016 137.691 53.9498C137.691 53.8836 141.499 53.8369 146.202 53.8369C150.905 53.8369 154.713 53.8875 154.713 53.9498Z" fill="#E0E0E0"/>
<path d="M147.292 57.738H144.411V63.8155H147.292V57.738Z" fill="white"/>
<path d="M154.713 66.1866C154.713 66.2489 150.901 66.3034 146.202 66.3034C141.503 66.3034 137.691 66.2489 137.691 66.1866C137.691 66.1243 141.499 66.0698 146.202 66.0698C150.905 66.0698 154.713 66.136 154.713 66.1866Z" fill="#E0E0E0"/>
<path d="M147.292 69.9905H144.411V76.068H147.292V69.9905Z" fill="white"/>
<path d="M154.713 78.4506C154.713 78.5167 150.901 78.5674 146.202 78.5674C141.503 78.5674 137.691 78.5167 137.691 78.4506C137.691 78.3844 141.499 78.3376 146.202 78.3376C150.905 78.3376 154.713 78.3883 154.713 78.4506Z" fill="#E0E0E0"/>
<path d="M147.292 82.2388H144.411V88.3163H147.292V82.2388Z" fill="white"/>
<path d="M154.713 90.7145C154.713 90.7768 150.901 90.8313 146.202 90.8313C141.503 90.8313 137.691 90.7768 137.691 90.7145C137.691 90.6522 141.499 90.5977 146.202 90.5977C150.905 90.5977 154.713 90.6366 154.713 90.7145Z" fill="#E0E0E0"/>
<path d="M147.292 94.491H144.411V100.568H147.292V94.491Z" fill="white"/>
<path d="M154.713 102.951C154.713 103.017 150.901 103.068 146.202 103.068C141.503 103.068 137.691 103.017 137.691 102.951C137.691 102.885 141.499 102.834 146.202 102.834C150.905 102.834 154.713 102.889 154.713 102.951Z" fill="#E0E0E0"/>
<path d="M147.292 106.74H144.411V112.817H147.292V106.74Z" fill="white"/>
<path d="M141.199 51.3452H106.214V117.746H141.199V51.3452Z" fill="#E0E0E0"/>
<path d="M141.199 51.3452H124.797V117.746H141.199V51.3452Z" fill="#EBEBEB"/>
<path d="M116.695 57.594H113.549V65.2366H116.695V57.594Z" fill="#F5F5F5"/>
<path d="M116.695 87.5027H113.549V95.1453H116.695V87.5027Z" fill="#F5F5F5"/>
<path d="M124.797 68.2345C124.797 68.3006 120.635 68.3552 115.503 68.3552C110.372 68.3552 106.214 68.3006 106.214 68.2345C106.214 68.1683 110.372 68.1138 115.503 68.1138C120.635 68.1138 124.797 68.1683 124.797 68.2345Z" fill="#F5F5F5"/>
<path d="M116.695 72.6611H113.549V80.3037H116.695V72.6611Z" fill="#F5F5F5"/>
<path d="M124.797 83.3175C124.797 83.3837 120.635 83.4343 115.503 83.4343C110.372 83.4343 106.214 83.3837 106.214 83.3175C106.214 83.2513 110.372 83.1968 115.503 83.1968C120.635 83.1968 124.797 83.2396 124.797 83.3175Z" fill="#F5F5F5"/>
<path d="M131.423 57.594H128.277V65.2366H131.423V57.594Z" fill="#E0E0E0"/>
<path d="M138.248 57.594H135.102V65.2366H138.248V57.594Z" fill="#E0E0E0"/>
<path d="M131.423 72.0928H128.277V79.7354H131.423V72.0928Z" fill="#E0E0E0"/>
<path d="M138.248 72.0928H135.102V79.7354H138.248V72.0928Z" fill="#E0E0E0"/>
<path d="M131.423 86.5955H128.277V94.2381H131.423V86.5955Z" fill="#E0E0E0"/>
<path d="M138.248 86.5955H135.102V94.2381H138.248V86.5955Z" fill="#E0E0E0"/>
<path d="M143.827 49.7373H103.582V51.3998H143.827V49.7373Z" fill="#E0E0E0"/>
<path d="M141.445 51.5592C141.445 51.6254 133.623 51.6799 123.979 51.6799C114.335 51.6799 106.514 51.6254 106.514 51.5592C106.514 51.493 114.331 51.4385 123.979 51.4385C133.627 51.4385 141.445 51.493 141.445 51.5592Z" fill="#EBEBEB"/>
<path d="M263.676 27.6736H235.255V117.742H263.676V27.6736Z" fill="#F5F5F5"/>
<path d="M263.676 27.6736H249.465V117.493H263.676V27.6736Z" fill="#EBEBEB"/>
<path d="M248.539 18.8318H238.502V27.6735H248.539V18.8318Z" fill="#F5F5F5"/>
<path d="M248.535 18.8318H246.144V27.6735H248.535V18.8318Z" fill="#EBEBEB"/>
<path d="M232.887 27.6738V27.1599H264.509V27.6738" fill="#E0E0E0"/>
<path d="M243.271 31.5322H240.865V36.6052H243.271V31.5322Z" fill="#FAFAFA"/>
<path d="M249.465 38.5944C249.465 38.6489 246.284 38.6917 242.36 38.6917C238.435 38.6917 235.255 38.6489 235.255 38.5944C235.255 38.5399 238.435 38.4971 242.36 38.4971C246.284 38.4971 249.465 38.5438 249.465 38.5944Z" fill="#E0E0E0"/>
<path d="M257.606 31.5322H255.2V36.6052H257.606V31.5322Z" fill="#E0E0E0"/>
<path d="M263.801 38.5944C263.801 38.6489 260.62 38.6917 256.695 38.6917C252.771 38.6917 249.59 38.6489 249.59 38.5944C249.59 38.5399 252.771 38.4971 256.695 38.4971C260.62 38.4971 263.801 38.5438 263.801 38.5944Z" fill="#E0E0E0"/>
<path d="M257.606 41.604H255.2V46.677H257.606V41.604Z" fill="#E0E0E0"/>
<path d="M263.801 48.6667C263.801 48.7212 260.62 48.764 256.695 48.764C252.771 48.764 249.59 48.7212 249.59 48.6667C249.59 48.6122 252.771 48.5693 256.695 48.5693C260.62 48.5693 263.801 48.6122 263.801 48.6667Z" fill="#E0E0E0"/>
<path d="M257.606 51.9758H255.2V57.0488H257.606V51.9758Z" fill="#E0E0E0"/>
<path d="M263.801 59.0385C263.801 59.093 260.62 59.1358 256.695 59.1358C252.771 59.1358 249.59 59.093 249.59 59.0385C249.59 58.984 252.771 58.9451 256.695 58.9451C260.62 58.9451 263.801 58.9879 263.801 59.0385Z" fill="#E0E0E0"/>
<path d="M257.606 62.3518H255.2V67.4248H257.606V62.3518Z" fill="#E0E0E0"/>
<path d="M263.801 69.4142C263.801 69.4687 260.62 69.5116 256.695 69.5116C252.771 69.5116 249.59 69.4687 249.59 69.4142C249.59 69.3597 252.771 69.3169 256.695 69.3169C260.62 69.3169 263.801 69.3597 263.801 69.4142Z" fill="#E0E0E0"/>
<path d="M257.606 72.4316H255.2V77.5047H257.606V72.4316Z" fill="#E0E0E0"/>
<path d="M263.801 79.4941C263.801 79.5447 260.62 79.5914 256.695 79.5914C252.771 79.5914 249.59 79.5447 249.59 79.4941C249.59 79.4434 252.771 79.3967 256.695 79.3967C260.62 79.3967 263.801 79.424 263.801 79.4941Z" fill="#E0E0E0"/>
<path d="M257.606 82.5466H255.2V87.6196H257.606V82.5466Z" fill="#E0E0E0"/>
<path d="M257.606 92.7976H255.2V97.8706H257.606V92.7976Z" fill="#E0E0E0"/>
<path d="M263.801 89.6127C263.801 89.6633 260.62 89.71 256.695 89.71C252.771 89.71 249.59 89.6633 249.59 89.6127C249.59 89.5621 252.771 89.5154 256.695 89.5154C260.62 89.5154 263.801 89.5465 263.801 89.6127Z" fill="#E0E0E0"/>
<path d="M243.271 41.7561H240.865V46.8291H243.271V41.7561Z" fill="#FAFAFA"/>
<path d="M249.465 48.8185C249.465 48.873 246.284 48.9159 242.36 48.9159C238.435 48.9159 235.255 48.873 235.255 48.8185C235.255 48.764 238.435 48.7212 242.36 48.7212C246.284 48.7212 249.465 48.7679 249.465 48.8185Z" fill="#E0E0E0"/>
<path d="M243.271 51.9797H240.865V57.0527H243.271V51.9797Z" fill="#FAFAFA"/>
<path d="M249.465 59.0422C249.465 59.0967 246.284 59.1395 242.36 59.1395C238.435 59.1395 235.255 59.0967 235.255 59.0422C235.255 58.9877 238.435 58.9487 242.36 58.9487C246.284 58.9487 249.465 58.9916 249.465 59.0422Z" fill="#E0E0E0"/>
<path d="M243.271 62.2039H240.865V67.2769H243.271V62.2039Z" fill="#FAFAFA"/>
<path d="M249.465 69.2702C249.465 69.3208 246.284 69.3636 242.36 69.3636C238.435 69.3636 235.255 69.3208 235.255 69.2702C235.255 69.2196 238.435 69.1729 242.36 69.1729C246.284 69.1729 249.465 69.2157 249.465 69.2702Z" fill="#E0E0E0"/>
<path d="M243.271 72.4316H240.865V77.5047H243.271V72.4316Z" fill="#FAFAFA"/>
<path d="M249.465 79.4941C249.465 79.5447 246.284 79.5914 242.36 79.5914C238.435 79.5914 235.255 79.5447 235.255 79.4941C235.255 79.4434 238.435 79.3967 242.36 79.3967C246.284 79.3967 249.465 79.424 249.465 79.4941Z" fill="#E0E0E0"/>
<path d="M243.271 82.6553H240.865V87.7283H243.271V82.6553Z" fill="#FAFAFA"/>
<path d="M249.465 89.7179C249.465 89.7724 246.284 89.8153 242.36 89.8153C238.435 89.8153 235.255 89.7724 235.255 89.7179C235.255 89.6634 238.435 89.6206 242.36 89.6206C246.284 89.6206 249.465 89.6634 249.465 89.7179Z" fill="#E0E0E0"/>
<path d="M243.271 92.8792H240.865V97.9522H243.271V92.8792Z" fill="#FAFAFA"/>
<path d="M69.6712 36.5854H44.0647V117.742H69.6712V36.5854Z" fill="#F5F5F5"/>
<path d="M69.675 36.5854H56.8699V117.52H69.675V36.5854Z" fill="#EBEBEB"/>
<path d="M56.0327 28.6199H46.9885V36.5856H56.0327V28.6199Z" fill="#F5F5F5"/>
<path d="M56.0326 28.6199H53.8757V36.5856H56.0326V28.6199Z" fill="#EBEBEB"/>
<path d="M41.9312 36.5856V36.1223H70.4226V36.5856" fill="#E0E0E0"/>
<path d="M51.2867 40.0623H49.1182V44.633H51.2867V40.0623Z" fill="#FAFAFA"/>
<path d="M56.8699 46.4243C56.8699 46.4749 54.0044 46.5138 50.4692 46.5138C46.9341 46.5138 44.0647 46.4749 44.0647 46.4243C44.0647 46.3737 46.9302 46.3386 50.4692 46.3386C54.0083 46.3386 56.8699 46.3776 56.8699 46.4243Z" fill="#E0E0E0"/>
<path d="M64.2047 40.0623H62.0361V44.633H64.2047V40.0623Z" fill="#E0E0E0"/>
<path d="M69.7842 46.4243C69.7842 46.4749 66.9187 46.5138 63.3835 46.5138C59.8484 46.5138 56.979 46.4749 56.979 46.4243C56.979 46.3737 59.8484 46.3386 63.3835 46.3386C66.9187 46.3386 69.7842 46.3776 69.7842 46.4243Z" fill="#E0E0E0"/>
<path d="M64.2047 49.1338H62.0361V53.7046H64.2047V49.1338Z" fill="#E0E0E0"/>
<path d="M69.7842 55.4995C69.7842 55.5501 66.9187 55.589 63.3835 55.589C59.8484 55.589 56.979 55.5501 56.979 55.4995C56.979 55.4489 59.8484 55.4138 63.3835 55.4138C66.9187 55.4138 69.7842 55.4528 69.7842 55.4995Z" fill="#E0E0E0"/>
<path d="M64.2047 58.4856H62.0361V63.0564H64.2047V58.4856Z" fill="#E0E0E0"/>
<path d="M69.7842 64.8471C69.7842 64.8977 66.9187 64.9367 63.3835 64.9367C59.8484 64.9367 56.979 64.8977 56.979 64.8471C56.979 64.7965 59.8484 64.7615 63.3835 64.7615C66.9187 64.7615 69.7842 64.8004 69.7842 64.8471Z" fill="#E0E0E0"/>
<path d="M64.2047 67.8335H62.0361V72.4043H64.2047V67.8335Z" fill="#E0E0E0"/>
<path d="M69.7842 74.1953C69.7842 74.2459 66.9187 74.2848 63.3835 74.2848C59.8484 74.2848 56.979 74.2459 56.979 74.1953C56.979 74.1447 59.8484 74.1096 63.3835 74.1096C66.9187 74.1096 69.7842 74.1486 69.7842 74.1953Z" fill="#E0E0E0"/>
<path d="M64.2047 76.9128H62.0361V81.4836H64.2047V76.9128Z" fill="#E0E0E0"/>
<path d="M69.7842 83.2783C69.7842 83.325 66.9187 83.3639 63.3835 83.3639C59.8484 83.3639 56.979 83.325 56.979 83.2783C56.979 83.2315 59.8484 83.1887 63.3835 83.1887C66.9187 83.1887 69.7842 83.2277 69.7842 83.2783Z" fill="#E0E0E0"/>
<path d="M64.2047 86.0308H62.0361V90.6015H64.2047V86.0308Z" fill="#E0E0E0"/>
<path d="M64.2047 95.2661H62.0361V99.8369H64.2047V95.2661Z" fill="#E0E0E0"/>
<path d="M69.7842 92.3964C69.7842 92.4432 66.9187 92.4821 63.3835 92.4821C59.8484 92.4821 56.979 92.4432 56.979 92.3964C56.979 92.3497 59.8484 92.3069 63.3835 92.3069C66.9187 92.3069 69.7842 92.3458 69.7842 92.3964Z" fill="#E0E0E0"/>
<path d="M51.2867 49.2739H49.1182V53.8447H51.2867V49.2739Z" fill="#FAFAFA"/>
<path d="M56.8699 55.6394C56.8699 55.6861 54.0044 55.725 50.4692 55.725C46.9341 55.725 44.0647 55.6861 44.0647 55.6394C44.0647 55.5926 46.9302 55.5498 50.4692 55.5498C54.0083 55.5498 56.8699 55.5887 56.8699 55.6394Z" fill="#E0E0E0"/>
<path d="M51.2867 58.4856H49.1182V63.0564H51.2867V58.4856Z" fill="#FAFAFA"/>
<path d="M56.8699 64.851C56.8699 64.8978 54.0044 64.9367 50.4692 64.9367C46.9341 64.9367 44.0647 64.8978 44.0647 64.851C44.0647 64.8043 46.9302 64.7654 50.4692 64.7654C54.0083 64.7654 56.8699 64.8043 56.8699 64.851Z" fill="#E0E0E0"/>
<path d="M51.2867 67.7009H49.1182V72.2717H51.2867V67.7009Z" fill="#FAFAFA"/>
<path d="M56.8699 74.0629C56.8699 74.1136 54.0044 74.1525 50.4692 74.1525C46.9341 74.1525 44.0647 74.1136 44.0647 74.0629C44.0647 74.0123 46.9302 73.9773 50.4692 73.9773C54.0083 73.9773 56.8699 74.0162 56.8699 74.0629Z" fill="#E0E0E0"/>
<path d="M51.2867 76.9128H49.1182V81.4836H51.2867V76.9128Z" fill="#FAFAFA"/>
<path d="M56.8699 83.2783C56.8699 83.325 54.0044 83.3639 50.4692 83.3639C46.9341 83.3639 44.0647 83.325 44.0647 83.2783C44.0647 83.2315 46.9302 83.1887 50.4692 83.1887C54.0083 83.1887 56.8699 83.2277 56.8699 83.2783Z" fill="#E0E0E0"/>
<path d="M51.2867 86.1245H49.1182V90.6953H51.2867V86.1245Z" fill="#FAFAFA"/>
<path d="M56.8699 92.49C56.8699 92.5367 54.0044 92.5756 50.4692 92.5756C46.9341 92.5756 44.0647 92.5367 44.0647 92.49C44.0647 92.4432 46.9302 92.4043 50.4692 92.4043C54.0083 92.4043 56.8699 92.4432 56.8699 92.49Z" fill="#E0E0E0"/>
<path d="M51.2867 95.3398H49.1182V99.9106H51.2867V95.3398Z" fill="#FAFAFA"/>
<path d="M237.411 117.851H196.127L195.948 52.6028H237.232L237.411 117.851Z" fill="#EBEBEB"/>
<path d="M237.233 52.6028H216.59V117.855H237.233V52.6028Z" fill="#E0E0E0"/>
<path d="M215.239 39.7549H200.658V52.599H215.239V39.7549Z" fill="#EBEBEB"/>
<path d="M215.239 39.7549H211.766V52.599H215.239V39.7549Z" fill="#E0E0E0"/>
<path d="M238.439 51.8511H192.506V52.5986H238.439V51.8511Z" fill="#E0E0E0"/>
<path d="M207.592 58.2053H204.096V65.5754H207.592V58.2053Z" fill="white"/>
<path d="M216.59 68.4641C216.59 68.542 211.969 68.6043 206.269 68.6043C200.569 68.6043 195.948 68.542 195.948 68.4641C195.948 68.3863 200.565 68.324 206.269 68.324C211.972 68.324 216.59 68.3863 216.59 68.4641Z" fill="#E0E0E0"/>
<path d="M228.414 58.2053H224.918V65.5754H228.414V58.2053Z" fill="#F5F5F5"/>
<path d="M237.411 68.4641C237.411 68.542 232.79 68.6043 227.09 68.6043C221.39 68.6043 216.769 68.542 216.769 68.4641C216.769 68.3863 221.39 68.324 227.09 68.324C232.79 68.324 237.411 68.3863 237.411 68.4641Z" fill="#EBEBEB"/>
<path d="M228.414 72.8325H224.918V80.2026H228.414V72.8325Z" fill="#F5F5F5"/>
<path d="M237.411 83.0952C237.411 83.1731 232.79 83.2354 227.09 83.2354C221.39 83.2354 216.769 83.1731 216.769 83.0952C216.769 83.0174 221.39 82.9551 227.09 82.9551C232.79 82.9551 237.411 83.0174 237.411 83.0952Z" fill="#EBEBEB"/>
<path d="M228.414 87.9075H224.918V95.2776H228.414V87.9075Z" fill="#F5F5F5"/>
<path d="M237.411 98.1665C237.411 98.2444 232.79 98.3067 227.09 98.3067C221.39 98.3067 216.769 98.2444 216.769 98.1665C216.769 98.0887 221.39 98.0264 227.09 98.0264C232.79 98.0264 237.411 98.0887 237.411 98.1665Z" fill="#EBEBEB"/>
<path d="M228.414 102.979H224.918V110.349H228.414V102.979Z" fill="#F5F5F5"/>
<path d="M237.411 113.237C237.411 113.315 232.79 113.377 227.09 113.377C221.39 113.377 216.769 113.315 216.769 113.237C216.769 113.159 221.39 113.097 227.09 113.097C232.79 113.097 237.411 113.159 237.411 113.237Z" fill="#EBEBEB"/>
<path d="M207.592 73.0583H204.096V80.4284H207.592V73.0583Z" fill="white"/>
<path d="M216.59 83.3172C216.59 83.395 211.969 83.4573 206.269 83.4573C200.569 83.4573 195.948 83.395 195.948 83.3172C195.948 83.2393 200.565 83.177 206.269 83.177C211.972 83.177 216.59 83.2393 216.59 83.3172Z" fill="#E0E0E0"/>
<path d="M207.592 87.9114H204.096V95.2815H207.592V87.9114Z" fill="white"/>
<path d="M216.59 98.1704C216.59 98.2483 211.969 98.3145 206.269 98.3145C200.569 98.3145 195.948 98.2483 195.948 98.1704C195.948 98.0926 200.565 98.0303 206.269 98.0303C211.972 98.0303 216.59 98.112 216.59 98.1704Z" fill="#E0E0E0"/>
<path d="M207.592 102.764H204.096V110.134H207.592V102.764Z" fill="white"/>
<path d="M216.59 113.027C216.59 113.105 211.969 113.167 206.269 113.167C200.569 113.167 195.948 113.105 195.948 113.027C195.948 112.949 200.565 112.883 206.269 112.883C211.972 112.883 216.59 112.949 216.59 113.027Z" fill="#E0E0E0"/>
<path d="M252.035 117.742C252.035 117.801 201.846 117.844 139.954 117.844C78.0612 117.844 27.8606 117.801 27.8606 117.742C27.8606 117.684 78.0379 117.641 139.954 117.641C201.869 117.641 252.035 117.688 252.035 117.742Z" fill="#E0E0E0"/>
<path d="M48.6667 53.2568C48.8497 51.933 46.9809 50.8429 45.552 50.73C44.8824 50.6755 44.1854 50.7767 43.5508 50.5548C42.1765 50.0759 41.6275 48.2967 40.2843 47.7321C39.2798 47.3078 38.1235 47.6854 37.1697 48.176C36.2158 48.6665 35.223 49.2817 34.1484 49.344C33.2023 49.4024 32.1745 49.052 31.3491 49.5153C30.7301 49.8579 30.4069 50.5704 29.8385 50.987C29.2477 51.353 28.5633 51.5396 27.8685 51.5242C27.1762 51.5054 26.4867 51.6177 25.8362 51.8552C25.2093 52.1433 24.6682 52.8051 24.82 53.4865L48.6667 53.2568Z" fill="#F5F5F5"/>
<path d="M102.511 31.3568C102.69 30.0292 100.822 28.9391 99.3967 28.8262C98.727 28.7717 98.0301 28.8729 97.3955 28.6549C96.0172 28.1721 95.4488 26.3967 94.1251 25.8283C93.1206 25.4078 91.9643 25.7816 90.991 26.2721C90.0176 26.7627 89.0443 27.3779 87.9697 27.4401C87.0236 27.5024 85.9958 27.152 85.1704 27.6115C84.5553 27.958 84.2321 28.6665 83.6637 29.087C83.0713 29.4524 82.3856 29.6377 81.6898 29.6204C80.9978 29.6057 80.309 29.7179 79.6575 29.9513C79.0306 30.2395 78.5128 30.9052 78.6413 31.5827L102.511 31.3568Z" fill="#F5F5F5"/>
<path d="M204.435 30.757C204.618 29.4333 202.745 28.3392 201.32 28.2263C200.651 28.1718 199.954 28.277 199.319 28.055C197.941 27.5762 197.392 25.7969 196.049 25.2324C195.044 24.808 193.888 25.1856 192.915 25.6762C191.941 26.1668 190.968 26.7819 189.893 26.8442C188.947 26.9026 187.919 26.5522 187.094 27.0155C186.479 27.3581 186.156 28.0706 185.587 28.4872C184.996 28.8543 184.309 29.0397 183.613 29.0206C182.921 29.0053 182.232 29.1188 181.581 29.3554C180.954 29.6435 180.436 30.3054 180.565 30.9867L204.435 30.757Z" fill="#F5F5F5"/>
<path d="M279.931 180.179C279.931 180.238 219.269 180.281 144.443 180.281C69.6167 180.281 8.95471 180.238 8.95471 180.179C8.95471 180.121 69.6012 180.078 144.443 180.078C219.284 180.078 279.931 180.125 279.931 180.179Z" fill="#263238"/>
<path d="M70.1894 140.938H24.6179V170.563H70.1894V140.938Z" fill="#FF725E"/>
<path d="M70.1971 170.571H24.6062V140.938H70.1971V170.571ZM24.6451 170.551H70.1971V140.938H24.6451V170.551Z" fill="#263238"/>
<g opacity="0.3">
<path d="M70.1894 140.938H24.6179V170.563H70.1894V140.938Z" fill="black"/>
</g>
<path d="M263.088 66.3621H22.8269C17.4151 66.3621 13.0273 69.8154 13.0273 74.0748V162.936C13.0273 167.192 17.4151 170.645 22.8269 170.645H33.2727C32.1829 167.911 31.7793 164.951 32.0972 162.025C32.4152 159.099 33.4449 156.295 35.0965 153.859C36.7481 151.423 38.9713 149.428 41.5717 148.049C44.1721 146.671 47.0707 145.95 50.014 145.95C52.9574 145.95 55.8559 146.671 58.4563 148.049C61.0568 149.428 63.2799 151.423 64.9315 153.859C66.5831 156.295 67.6129 159.099 67.9308 162.025C68.2487 164.951 67.8452 167.911 66.7553 170.645H263.088C268.5 170.645 272.888 167.192 272.888 162.936V74.0748C272.888 69.8154 268.5 66.3621 263.088 66.3621Z" fill="#FF725E"/>
<path d="M220.682 73.4673H124.493V131.26H220.682V73.4673Z" fill="#455A64"/>
<path d="M13.1948 73.5841C13.1948 73.5296 71.369 73.4829 143.119 73.4829C214.869 73.4829 273.055 73.5296 273.055 73.5841C273.055 73.6386 214.889 73.6854 143.119 73.6854C71.3496 73.6854 13.1948 73.6231 13.1948 73.5841Z" fill="#263238"/>
<path d="M210.201 62.6089H146.791C145.208 62.6089 143.925 63.8909 143.925 65.4724C143.925 67.0539 145.208 68.336 146.791 68.336H210.201C211.784 68.336 213.067 67.0539 213.067 65.4724C213.067 63.8909 211.784 62.6089 210.201 62.6089Z" fill="#FF725E"/>
<path d="M55.4296 62.6089H27.4988C25.9162 62.6089 24.6333 63.8909 24.6333 65.4724C24.6333 67.0539 25.9162 68.336 27.4988 68.336H55.4296C57.0121 68.336 58.2951 67.0539 58.2951 65.4724C58.2951 63.8909 57.0121 62.6089 55.4296 62.6089Z" fill="#FF725E"/>
<g opacity="0.3">
<path d="M214.048 139.989H174.421V170.645H214.048V139.989Z" fill="black"/>
</g>
<path d="M273.659 160.682H266.569C265.971 160.682 265.398 160.444 264.975 160.022C264.552 159.599 264.315 159.025 264.315 158.428C264.315 157.829 264.552 157.256 264.975 156.832C265.397 156.409 265.971 156.17 266.569 156.169H273.659C274.257 156.17 274.83 156.409 275.253 156.832C275.676 157.256 275.913 157.829 275.913 158.428C275.913 159.025 275.675 159.599 275.253 160.022C274.83 160.444 274.257 160.682 273.659 160.682Z" fill="#455A64"/>
<path d="M272.888 154.706H269.314C267.776 154.705 266.301 154.093 265.214 153.005C264.127 151.917 263.517 150.442 263.517 148.905C263.517 147.367 264.127 145.892 265.214 144.804C266.301 143.716 267.776 143.105 269.314 143.104H272.888V154.706Z" fill="#EBEBEB"/>
<path d="M272.888 154.705C272.883 154.629 272.883 154.552 272.888 154.476C272.888 154.312 272.888 154.086 272.888 153.829C272.888 153.253 272.888 152.443 272.865 151.427C272.865 149.368 272.837 146.483 272.818 143.103L272.911 143.201H269.59C268.416 143.159 267.256 143.475 266.265 144.108C265.229 144.772 264.435 145.754 264.003 146.907C263.793 147.448 263.673 148.02 263.649 148.601C263.614 149.158 263.666 149.717 263.801 150.259C264.046 151.267 264.559 152.189 265.284 152.93C265.923 153.569 266.699 154.052 267.554 154.343C268.263 154.569 269.006 154.672 269.75 154.647H271.444L272.522 154.666H272.81H272.911C272.911 154.666 272.884 154.666 272.826 154.666H272.549L271.479 154.686L269.762 154.709C269 154.749 268.237 154.654 267.507 154.429C266.629 154.137 265.83 153.647 265.171 152.996C264.413 152.239 263.875 151.291 263.614 150.251C263.474 149.693 263.42 149.117 263.454 148.542C263.467 148.246 263.501 147.95 263.556 147.658C263.622 147.362 263.708 147.071 263.813 146.786C264.257 145.592 265.077 144.575 266.149 143.886C267.174 143.235 268.373 142.909 269.586 142.951H273.005V143.045C273.005 146.452 272.974 149.356 272.962 151.431C272.962 152.436 272.962 153.241 272.935 153.814C272.935 154.075 272.935 154.281 272.935 154.441C272.929 154.53 272.913 154.619 272.888 154.705Z" fill="#263238"/>
<path d="M29.2626 157.614H22.6867C22.0207 157.614 21.382 157.349 20.9111 156.878C20.4401 156.407 20.1755 155.769 20.1755 155.103C20.1755 154.437 20.4401 153.798 20.9111 153.327C21.382 152.856 22.0207 152.591 22.6867 152.591H29.2626C29.9286 152.591 30.5673 152.856 31.0383 153.327C31.5092 153.798 31.7738 154.437 31.7738 155.103C31.7738 155.769 31.5092 156.407 31.0383 156.878C30.5673 157.349 29.9286 157.614 29.2626 157.614Z" fill="#F5F5F5"/>
<path d="M29.2625 157.614C29.6364 157.584 30.0017 157.486 30.3409 157.326C30.7965 157.098 31.1702 156.734 31.4107 156.285C31.6513 155.836 31.7468 155.324 31.6841 154.818C31.6196 154.283 31.3787 153.784 30.9995 153.401C30.6202 153.017 30.1242 152.771 29.5895 152.7C29.2002 152.662 28.7641 152.7 28.3358 152.7H22.7061C22.2524 152.7 21.8078 152.828 21.4234 153.069C21.0391 153.31 20.7304 153.655 20.5329 154.063C20.3354 154.472 20.257 154.928 20.3067 155.379C20.3564 155.83 20.5322 156.258 20.8139 156.613C21.0675 156.933 21.3967 157.184 21.7717 157.345C22.1316 157.489 22.5175 157.555 22.9046 157.54H25.0421L28.1567 157.571H28.9977C29.0967 157.569 29.1957 157.576 29.2936 157.59C29.196 157.608 29.0969 157.616 28.9977 157.614H28.1567L25.0421 157.649H22.9046C22.494 157.67 22.0836 157.603 21.7016 157.45C21.3826 157.318 21.0932 157.123 20.8502 156.878C20.6072 156.632 20.4154 156.341 20.2861 156.02C20.1567 155.7 20.0924 155.357 20.0968 155.012C20.1012 154.667 20.1742 154.326 20.3117 154.009C20.5165 153.545 20.852 153.15 21.2772 152.874C21.7024 152.597 22.1989 152.45 22.7061 152.451H28.3358C28.7758 152.451 29.1807 152.432 29.6129 152.479C30.023 152.531 30.4144 152.682 30.7536 152.918C31.0558 153.13 31.3096 153.403 31.4982 153.72C31.6869 154.036 31.806 154.39 31.8476 154.756C31.9095 155.363 31.7581 155.973 31.4194 156.481C31.2108 156.787 30.9374 157.044 30.6184 157.232C30.2994 157.42 29.9428 157.536 29.5739 157.571C29.4805 157.571 29.4065 157.571 29.3559 157.571C29.3053 157.571 29.2625 157.618 29.2625 157.614Z" fill="#263238"/>
<path d="M282.201 82.34H281.033C281.033 77.0061 277.899 72.6651 274.025 72.6651H261.177V71.4971H274.025C278.541 71.4971 282.201 76.3637 282.201 82.34Z" fill="#FF725E"/>
<path d="M282.014 79.2256H279.094C278.361 79.2256 277.766 79.82 277.766 80.5532V107.098C277.766 107.831 278.361 108.426 279.094 108.426H282.014C282.747 108.426 283.341 107.831 283.341 107.098V80.5532C283.341 79.82 282.747 79.2256 282.014 79.2256Z" fill="#FF725E"/>
<path d="M282.014 108.425C282.239 108.411 282.459 108.346 282.656 108.235C282.892 108.098 283.079 107.889 283.189 107.639C283.309 107.286 283.348 106.911 283.302 106.541C283.302 104.828 283.302 102.367 283.271 99.3305C283.24 96.2937 283.271 92.6612 283.248 88.6394C283.248 86.6305 283.248 84.5164 283.248 82.3283V80.6737C283.269 80.409 283.204 80.1446 283.064 79.9191C282.924 79.6936 282.716 79.5187 282.469 79.42C282.219 79.3352 281.954 79.3033 281.691 79.3266H279.101C278.835 79.3311 278.578 79.4215 278.367 79.5843C278.157 79.747 278.005 79.9735 277.933 80.2298C277.887 80.5024 277.873 80.7793 277.891 81.0552V81.9078C277.891 83.0369 277.891 84.1504 277.891 85.2483C277.891 87.4364 277.891 89.531 277.891 91.5594C277.891 95.5851 277.891 99.2059 277.867 102.254C277.867 103.773 277.867 105.151 277.867 106.358C277.867 106.658 277.867 106.958 277.867 107.23C277.891 107.48 277.989 107.717 278.148 107.912C278.306 108.107 278.519 108.25 278.759 108.324C278.973 108.377 279.193 108.398 279.413 108.386L281.36 108.406H279.413C279.184 108.424 278.954 108.405 278.732 108.351C278.474 108.272 278.245 108.119 278.073 107.911C277.901 107.704 277.793 107.451 277.762 107.183C277.762 106.895 277.762 106.611 277.762 106.303C277.762 105.097 277.762 103.718 277.762 102.2C277.762 99.1514 277.762 95.5306 277.762 91.5049C277.762 89.4959 277.762 87.3819 277.762 85.1938V80.6269C277.756 80.4747 277.773 80.3225 277.813 80.1753C277.897 79.8739 278.077 79.6082 278.325 79.4184C278.574 79.2287 278.878 79.1254 279.191 79.1241H281.78C282.076 79.0994 282.375 79.1366 282.656 79.2331C282.935 79.3519 283.169 79.5544 283.328 79.8125C283.486 80.0706 283.56 80.3715 283.54 80.6737C283.54 81.2265 283.54 81.7794 283.54 82.3283C283.54 84.5164 283.54 86.611 283.54 88.6394C283.54 92.6612 283.54 96.2859 283.516 99.3305C283.493 102.375 283.493 104.828 283.485 106.541C283.485 106.751 283.485 106.954 283.485 107.144C283.476 107.376 283.407 107.601 283.285 107.798C283.162 107.996 282.992 108.158 282.788 108.27C282.638 108.354 282.473 108.407 282.302 108.425C282.206 108.439 282.109 108.439 282.014 108.425Z" fill="#263238"/>
<path d="M71.5909 132.953L50.345 132.408L32.4746 111.54H17.7539V73.5684H71.5909V132.953Z" fill="#455A64"/>
<path d="M71.5909 132.953C71.5909 132.953 71.5909 132.856 71.5909 132.669C71.5909 132.482 71.5909 132.202 71.5909 131.84C71.5909 131.108 71.5909 130.026 71.5909 128.62C71.5909 125.805 71.5909 121.69 71.5675 116.473C71.5675 106.047 71.5402 91.2131 71.5208 73.5685L71.6103 73.658H23.6795H17.7538L17.8551 73.5568C17.8551 87.0472 17.8551 99.868 17.8551 111.528L17.7616 111.435H32.4823H32.5213L32.5485 111.466L50.3917 132.373L50.3488 132.35L65.9961 132.786L70.1503 132.907L71.2249 132.942H71.5909H71.2482L70.1854 132.922L66.0429 132.829L50.3566 132.459H50.3294L50.3099 132.44L32.4122 111.595L32.4745 111.626H17.7538H17.6604V111.532C17.6604 99.8718 17.6604 87.0511 17.6604 73.5607V73.4595H23.66H71.5909H71.6804V73.5841C71.6804 91.252 71.6493 106.105 71.6376 116.547C71.6376 121.756 71.6181 125.864 71.6103 128.675C71.6103 130.072 71.6103 131.147 71.6103 131.875C71.6103 132.233 71.6103 132.506 71.6103 132.693C71.6103 132.88 71.5909 132.953 71.5909 132.953Z" fill="#263238"/>
<path d="M209.86 164.579C210.001 155.921 203.096 148.788 194.438 148.648C185.78 148.507 178.648 155.412 178.507 164.07C178.367 172.728 185.271 179.86 193.929 180.001C202.587 180.141 209.72 173.236 209.86 164.579Z" fill="#263238"/>
<path d="M178.502 164.053C178.502 164.053 178.502 164.08 178.502 164.096C178.437 166.176 178.786 168.249 179.53 170.193C180.274 172.137 181.398 173.913 182.835 175.418C184.273 176.923 185.996 178.127 187.904 178.959C189.811 179.791 191.866 180.235 193.947 180.265C196.028 180.295 198.094 179.911 200.025 179.134C201.956 178.357 203.713 177.203 205.193 175.74C206.674 174.277 207.848 172.534 208.648 170.612C209.447 168.691 209.856 166.629 209.851 164.548V164.505L178.502 164.053Z" fill="#263238"/>
<path d="M183.17 164.162C183.139 166.339 183.755 168.475 184.938 170.302C186.122 172.129 187.82 173.563 189.819 174.425C191.818 175.286 194.028 175.536 196.168 175.141C198.309 174.747 200.285 173.727 201.846 172.21C203.407 170.693 204.483 168.748 204.938 166.619C205.393 164.491 205.207 162.275 204.404 160.252C203.6 158.23 202.214 156.491 200.422 155.255C198.63 154.02 196.512 153.343 194.336 153.312C191.416 153.27 188.6 154.39 186.506 156.425C184.412 158.46 183.212 161.243 183.17 164.162Z" fill="#FAFAFA"/>
<path d="M194.336 153.312C192.89 153.291 191.455 153.555 190.111 154.089C188.767 154.622 187.542 155.416 186.505 156.424C185.468 157.431 184.64 158.633 184.067 159.961C183.495 161.289 183.19 162.717 183.17 164.162L205.183 164.478C205.224 161.559 204.105 158.743 202.071 156.649C200.037 154.555 197.255 153.355 194.336 153.312Z" fill="#E0E0E0"/>
<path d="M187.472 164.225C187.455 165.55 187.832 166.851 188.554 167.962C189.276 169.074 190.311 169.946 191.529 170.469C192.747 170.993 194.092 171.143 195.396 170.902C196.699 170.661 197.901 170.039 198.851 169.115C199.801 168.19 200.456 167.005 200.732 165.709C201.009 164.413 200.895 163.063 200.405 161.832C199.915 160.6 199.072 159.542 197.98 158.789C196.889 158.037 195.599 157.626 194.274 157.606C193.392 157.593 192.517 157.754 191.698 158.08C190.879 158.406 190.132 158.89 189.5 159.505C188.868 160.12 188.364 160.853 188.016 161.663C187.668 162.473 187.483 163.343 187.472 164.225Z" fill="#263238"/>
<path d="M65.625 164.725C65.7595 156.067 58.8499 148.939 50.1919 148.804C41.534 148.67 34.4063 155.58 34.2719 164.237C34.1374 172.895 41.047 180.023 49.7049 180.158C58.3628 180.292 65.4905 173.382 65.625 164.725Z" fill="#263238"/>
<path d="M34.2617 164.213V164.252C34.2013 168.41 35.7952 172.422 38.6927 175.405C41.5903 178.388 45.5542 180.098 49.7124 180.158C53.8705 180.218 57.8824 178.625 60.8654 175.727C63.8484 172.829 65.5582 168.866 65.6186 164.707C65.6186 164.707 65.6186 164.68 65.6186 164.665L34.2617 164.213Z" fill="#263238"/>
<path d="M38.9335 164.322C38.9022 166.499 39.5172 168.637 40.7009 170.465C41.8847 172.293 43.5838 173.729 45.5836 174.591C47.5834 175.453 49.7939 175.703 51.9356 175.309C54.0774 174.915 56.0541 173.894 57.6159 172.377C59.1777 170.859 60.2543 168.912 60.7097 166.783C61.165 164.653 60.9787 162.436 60.1741 160.413C59.3696 158.389 57.983 156.65 56.1897 155.414C54.3965 154.178 52.2771 153.502 50.0996 153.471C47.1803 153.431 44.3644 154.551 42.2707 156.585C40.1769 158.62 38.9766 161.403 38.9335 164.322Z" fill="#FAFAFA"/>
<path d="M50.1075 153.471C47.1869 153.429 44.369 154.548 42.2735 156.583C40.178 158.618 38.9766 161.402 38.9336 164.322L60.9504 164.637C60.991 161.72 59.8719 158.905 57.839 156.811C55.806 154.718 53.0253 153.516 50.1075 153.471Z" fill="#E0E0E0"/>
<path d="M43.2433 164.384C43.2257 165.711 43.6018 167.013 44.324 168.125C45.0462 169.238 46.0821 170.112 47.3007 170.636C48.5193 171.16 49.866 171.311 51.1704 171.07C52.4748 170.829 53.6785 170.206 54.6292 169.281C55.5799 168.356 56.235 167.17 56.5116 165.872C56.7883 164.575 56.674 163.225 56.1834 161.992C55.6927 160.76 54.8477 159.7 53.7551 158.948C52.6624 158.196 51.3713 157.784 50.0449 157.766C48.2654 157.742 46.5492 158.426 45.2737 159.667C43.9982 160.908 43.2679 162.605 43.2433 164.384Z" fill="#263238"/>
<path d="M17.7538 169.531C17.6993 169.531 17.6526 148.048 17.6526 121.554C17.6526 95.0596 17.6993 73.584 17.7538 73.584C17.8083 73.584 17.855 95.0635 17.855 121.569C17.855 148.075 17.8083 169.531 17.7538 169.531Z" fill="#263238"/>
<path d="M21.3706 66.7162C21.3706 66.6617 64.8513 66.615 118.474 66.615C172.097 66.615 215.586 66.6617 215.586 66.7162C215.586 66.7707 172.117 66.8174 118.474 66.8174C64.8319 66.8174 21.3706 66.7746 21.3706 66.7162Z" fill="#263238"/>
<path d="M124.494 138.073C124.439 138.073 124.392 123.828 124.392 106.257C124.392 88.6864 124.439 74.4407 124.494 74.4407C124.548 74.4407 124.595 88.6825 124.595 106.257C124.595 123.832 124.552 138.073 124.494 138.073Z" fill="#263238"/>
<path d="M173.483 129.901C173.425 129.901 173.382 117.485 173.382 102.173C173.382 86.8604 173.425 74.4407 173.483 74.4407C173.542 74.4407 173.585 86.8526 173.585 102.173C173.585 117.493 173.538 129.901 173.483 129.901Z" fill="#263238"/>
<path d="M140.803 123.543C140.756 123.512 145.708 116.274 151.856 107.378C158.004 98.4817 163.03 91.2946 163.077 91.3258C163.123 91.3569 158.175 98.5946 152.023 107.495C145.872 116.395 140.85 123.574 140.803 123.543Z" fill="#263238"/>
<path d="M133.88 126.829C133.838 126.798 139.144 119.299 145.732 110.088C152.319 100.876 157.704 93.4399 157.75 93.4399C157.797 93.4399 152.491 100.97 145.899 110.181C139.308 119.393 133.931 126.864 133.88 126.829Z" fill="#263238"/>
<path d="M179.152 114.437C179.109 114.402 184.739 107.888 191.727 99.8912C198.716 91.8943 204.416 85.4353 204.459 85.4859C204.501 85.5365 198.872 92.0345 191.879 100.035C184.887 108.036 179.195 114.464 179.152 114.437Z" fill="#263238"/>
<path d="M184.357 115.317C184.314 115.278 189.843 109.255 196.703 101.865C203.563 94.4757 209.162 88.515 209.201 88.5539C209.239 88.5928 203.715 94.608 196.855 102.005C189.995 109.403 184.396 115.356 184.357 115.317Z" fill="#263238"/>
<path d="M124.493 138.03V170.559H177.147C176.162 168.094 175.735 165.441 175.895 162.792C176.055 160.142 176.798 157.56 178.072 155.231C179.346 152.902 181.118 150.883 183.263 149.319C185.408 147.755 187.872 146.684 190.479 146.183C193.086 145.682 195.771 145.763 198.343 146.42C200.915 147.077 203.31 148.295 205.356 149.986C207.403 151.676 209.05 153.799 210.181 156.2C211.312 158.602 211.899 161.224 211.899 163.878C211.899 166.241 211.12 168.55 210.306 170.614L217.747 170.645V138.03H124.493Z" fill="#FF725E"/>
<path d="M170.077 159.732H163.52C162.853 159.732 162.213 159.467 161.742 158.995C161.27 158.524 161.005 157.884 161.005 157.217C161.006 156.55 161.272 155.912 161.743 155.441C162.215 154.97 162.854 154.706 163.52 154.706H170.092C170.758 154.706 171.397 154.97 171.868 155.441C172.339 155.912 172.603 156.551 172.603 157.217C172.603 157.548 172.538 157.876 172.411 158.182C172.284 158.488 172.097 158.766 171.863 158.999C171.628 159.233 171.349 159.418 171.043 159.544C170.736 159.669 170.408 159.733 170.077 159.732Z" fill="white"/>
<path d="M170.076 159.732C170.452 159.698 170.818 159.599 171.159 159.44C171.549 159.241 171.88 158.945 172.12 158.579C172.438 158.094 172.576 157.513 172.51 156.936C172.444 156.398 172.201 155.897 171.818 155.513C171.434 155.129 170.934 154.885 170.396 154.818C170.006 154.775 169.574 154.818 169.146 154.818H163.516C163.062 154.817 162.617 154.945 162.232 155.186C161.847 155.426 161.538 155.771 161.34 156.179C161.142 156.588 161.063 157.044 161.113 157.496C161.162 157.947 161.338 158.375 161.62 158.731C161.874 159.052 162.203 159.305 162.578 159.467C162.938 159.61 163.324 159.675 163.711 159.658H165.852L168.967 159.693H169.812C169.91 159.691 170.007 159.698 170.104 159.716C170.007 159.731 169.909 159.737 169.812 159.736L168.967 159.755L165.852 159.786H163.711C163.301 159.806 162.891 159.74 162.508 159.591C161.968 159.349 161.526 158.93 161.256 158.403C160.986 157.876 160.903 157.273 161.02 156.693C161.138 156.113 161.45 155.59 161.904 155.21C162.358 154.831 162.928 154.617 163.52 154.604H169.15C169.586 154.604 169.995 154.585 170.423 154.631C170.997 154.706 171.53 154.971 171.936 155.385C172.341 155.799 172.595 156.337 172.658 156.913C172.724 157.519 172.572 158.129 172.229 158.634C171.974 159.011 171.62 159.311 171.206 159.502C170.948 159.624 170.671 159.699 170.388 159.724C170.314 159.729 170.24 159.729 170.166 159.724L170.076 159.732Z" fill="#263238"/>
<path d="M98.0382 73.7319H71.6492V170.559H98.0382V73.7319Z" fill="#FF725E"/>
<path d="M98.0382 170.559C98.0382 170.559 98.0382 170.396 98.0382 170.076C98.0382 169.757 98.0382 169.298 98.0382 168.659C98.0382 167.413 98.0382 165.576 98.0382 163.208C98.0382 158.455 98.0382 151.528 98.0109 142.897C98.0109 125.618 97.9837 101.425 97.9642 73.7436L98.0615 73.8409H71.6375L71.7387 73.7397C71.7387 113.253 71.7114 148.414 71.6998 170.567L71.6375 170.505L91.1041 170.528H96.2706H97.6021H98.0576H97.6177H96.294H91.1392L71.6725 170.559H71.6102V170.497C71.6102 148.344 71.5869 113.183 71.5713 73.6696V73.5684H98.1628V73.6657C98.1628 101.375 98.1277 125.595 98.116 142.889C98.116 151.521 98.116 158.427 98.0888 163.177C98.0888 165.544 98.0888 167.378 98.0888 168.628C98.0888 169.247 98.0888 169.714 98.0888 170.033C98.0888 170.353 98.0382 170.559 98.0382 170.559Z" fill="#263238"/>
<path d="M89.3794 77.2437H80.6194C77.9381 77.2437 75.7644 79.4173 75.7644 82.0986V133.175C75.7644 135.857 77.9381 138.03 80.6194 138.03H89.3794C92.0607 138.03 94.2344 135.857 94.2344 133.175V82.0986C94.2344 79.4173 92.0607 77.2437 89.3794 77.2437Z" fill="#455A64"/>
<path d="M89.3796 138.03C89.3796 138.03 89.5081 138.03 89.769 137.999C90.1448 137.963 90.5156 137.886 90.8747 137.769C91.4605 137.578 92.0038 137.275 92.4748 136.878C93.1137 136.335 93.6018 135.636 93.892 134.849C94.0714 134.384 94.1702 133.892 94.184 133.393C94.184 132.872 94.184 132.315 94.184 131.735C94.184 130.567 94.184 129.325 94.184 127.978C94.184 125.276 94.184 122.204 94.184 118.809C94.184 112.011 94.184 103.925 94.1606 94.9428C94.1606 92.6951 94.1606 90.3954 94.1606 88.0438V82.6749C94.1908 82.0758 94.1358 81.4754 93.9971 80.8918C93.7655 80.0067 93.2827 79.2076 92.6071 78.5907C91.9315 77.9738 91.0919 77.5655 90.1894 77.415C89.5706 77.3425 88.947 77.3191 88.3245 77.345H80.6274C79.9984 77.3444 79.3754 77.4686 78.7947 77.7104C78.2139 77.9522 77.6869 78.3067 77.2441 78.7535C76.8013 79.2003 76.4515 79.7305 76.2149 80.3134C75.9783 80.8963 75.8597 81.5203 75.8659 82.1493V89.609C75.8659 94.4951 75.8659 99.2099 75.8659 103.703C75.8659 112.685 75.8659 120.775 75.8464 127.569C75.8464 129.266 75.8464 130.886 75.8464 132.416C75.8464 132.805 75.8464 133.175 75.8464 133.541C75.8751 133.901 75.9404 134.257 76.0411 134.604C76.2506 135.264 76.5983 135.872 77.0611 136.387C77.8993 137.32 79.0689 137.887 80.3198 137.968C81.4684 138.003 82.5313 137.968 83.4773 137.995H87.8534L83.4773 138.015C82.5274 138.015 81.4762 138.034 80.3159 138.015C79.0356 137.937 77.8364 137.362 76.9755 136.411C76.2417 135.609 75.7999 134.583 75.7218 133.499C75.6946 133.109 75.7024 132.747 75.7024 132.366C75.7024 130.835 75.7024 129.216 75.7024 127.518C75.7024 120.724 75.7024 112.634 75.679 103.652C75.679 99.1593 75.679 94.4445 75.679 89.5584C75.679 87.1133 75.679 84.6268 75.679 82.0987C75.674 80.7894 76.1844 79.5307 77.1001 78.5947C77.5611 78.1224 78.1122 77.7474 78.7208 77.4919C79.3293 77.2365 79.983 77.1057 80.643 77.1075H88.3012C88.9355 77.0818 89.5708 77.1065 90.2011 77.1814C91.1411 77.3386 92.0156 77.7644 92.7189 78.4076C93.4222 79.0508 93.9243 79.8839 94.1645 80.8061C94.3089 81.4061 94.3653 82.0238 94.3319 82.6399V88.0088C94.3319 90.3604 94.3319 92.66 94.3319 94.9078C94.3319 103.89 94.3319 111.976 94.3086 118.774C94.3086 122.169 94.3086 125.241 94.3086 127.943C94.3086 129.29 94.3086 130.547 94.3086 131.7C94.3086 132.28 94.3086 132.833 94.3086 133.362C94.2909 133.869 94.1882 134.369 94.0049 134.842C93.7483 135.532 93.338 136.154 92.8051 136.662C92.2722 137.17 91.6307 137.55 90.9292 137.773C90.5646 137.886 90.1884 137.957 89.8079 137.984L89.3796 138.03Z" fill="#263238"/>
<path d="M124.56 170.559C124.56 170.559 124.56 170.396 124.56 170.076C124.56 169.757 124.56 169.298 124.56 168.659C124.56 167.413 124.56 165.576 124.56 163.209C124.56 158.455 124.56 151.529 124.532 142.897C124.532 125.618 124.505 101.425 124.49 73.7436L124.587 73.8409H98.1706L98.2718 73.7397C98.2718 113.253 98.2407 148.414 98.2329 170.567L98.1706 170.505L117.602 170.54H122.773H124.104H124.56H124.116H122.796H117.641L98.1745 170.571H98.1122V170.509C98.1122 148.355 98.0888 113.195 98.0732 73.6813V73.5801H124.665V73.6774C124.645 101.386 124.63 125.607 124.618 142.901C124.618 151.532 124.595 158.439 124.591 163.189C124.591 165.556 124.591 167.39 124.591 168.64C124.591 169.259 124.591 169.726 124.591 170.045C124.591 170.364 124.56 170.559 124.56 170.559Z" fill="#263238"/>
<path d="M116.006 77.2437H107.036C104.412 77.2437 102.286 79.3702 102.286 81.9935V133.28C102.286 135.904 104.412 138.03 107.036 138.03H116.006C118.629 138.03 120.756 135.904 120.756 133.28V81.9935C120.756 79.3702 118.629 77.2437 116.006 77.2437Z" fill="#455A64"/>
<path d="M116.022 138.03C116.529 138.01 117.03 137.921 117.513 137.766C118.099 137.571 118.639 137.26 119.101 136.851C119.735 136.298 120.211 135.588 120.48 134.791C120.635 134.317 120.718 133.822 120.725 133.323C120.725 132.798 120.725 132.245 120.725 131.665C120.725 130.497 120.725 129.251 120.725 127.9C120.725 125.198 120.725 122.122 120.725 118.719C120.725 111.918 120.725 103.82 120.705 94.8259C120.705 92.5782 120.705 90.2759 120.705 87.9192C120.705 86.7434 120.705 85.5546 120.705 84.3529V82.5386C120.739 81.939 120.681 81.3377 120.534 80.7554C120.288 79.873 119.787 79.0826 119.095 78.4824C118.403 77.8822 117.549 77.4988 116.641 77.3799C116.037 77.3137 115.395 77.3488 114.768 77.341H107.04C106.407 77.3398 105.78 77.4688 105.198 77.72C104.617 77.9711 104.094 78.3391 103.66 78.801C103.233 79.2568 102.9 79.7931 102.682 80.3785C102.463 80.964 102.363 81.5871 102.387 82.2115C102.387 84.7422 102.387 87.2313 102.387 89.679C102.387 94.5729 102.387 99.2916 102.387 103.792C102.387 112.786 102.387 120.884 102.364 127.686C102.364 129.386 102.364 131.003 102.364 132.537C102.312 133.274 102.39 134.015 102.594 134.725C102.81 135.383 103.168 135.986 103.641 136.492C104.065 136.948 104.577 137.314 105.145 137.568C105.714 137.822 106.328 137.96 106.95 137.972H110.112H114.492L110.112 137.991H106.946C106.31 137.981 105.683 137.842 105.101 137.585C104.519 137.328 103.995 136.956 103.559 136.492C103.072 135.975 102.703 135.359 102.477 134.686C102.422 134.515 102.383 134.332 102.337 134.153C102.29 133.973 102.271 133.787 102.259 133.596C102.232 133.206 102.239 132.844 102.235 132.459C102.235 130.928 102.235 129.31 102.235 127.608C102.235 120.806 102.235 112.708 102.235 103.714C102.235 99.2137 102.235 94.495 102.235 89.6011V82.2154C102.211 81.5652 102.315 80.9165 102.543 80.307C102.771 79.6975 103.118 79.1393 103.563 78.6647C104.016 78.1831 104.562 77.7994 105.169 77.5376C105.776 77.2757 106.43 77.1412 107.09 77.1424H114.776C115.407 77.1424 116.033 77.1152 116.676 77.1853C117.31 77.2661 117.921 77.4726 118.475 77.7926C119.577 78.4314 120.385 79.4769 120.725 80.7048C120.877 81.3049 120.937 81.9244 120.904 82.5425V87.9192C120.904 90.2759 120.904 92.5782 120.904 94.8259C120.904 103.82 120.904 111.918 120.881 118.719C120.881 122.122 120.881 125.198 120.881 127.9C120.881 129.251 120.881 130.508 120.881 131.665C120.881 132.245 120.881 132.798 120.881 133.327C120.872 133.833 120.786 134.335 120.624 134.814C120.347 135.622 119.859 136.342 119.21 136.897C118.741 137.305 118.192 137.613 117.599 137.801C117.235 137.919 116.859 137.992 116.477 138.019L116.022 138.03Z" fill="#263238"/>
<path d="M46.8916 109.819C46.8449 109.788 50.1153 104.84 54.1994 98.77C58.2835 92.7003 61.6318 87.7986 61.6746 87.8297C61.7174 87.8609 58.4509 92.8054 54.3668 98.8829C50.2827 104.96 46.9383 109.854 46.8916 109.819Z" fill="#263238"/>
<path d="M40.5298 109.819L40.5765 109.733L40.7322 109.484L41.3396 108.546C41.8691 107.732 42.6478 106.56 43.6289 105.128C45.5755 102.254 48.3398 98.3221 51.4155 93.9966C54.4913 89.6711 57.2555 85.7544 59.2372 82.9006L61.5732 79.5212L62.2118 78.6024L62.3792 78.3649C62.4181 78.3143 62.4415 78.287 62.4454 78.2909C62.4325 78.3209 62.4169 78.3495 62.3986 78.3765L62.2429 78.6257L61.6394 79.564C61.1061 80.3777 60.3274 81.5496 59.3463 82.9824C57.3996 85.8556 54.6353 89.7879 51.5596 94.1134C48.4839 98.4389 45.7196 102.356 43.7379 105.209L41.4019 108.589L40.7673 109.508L40.596 109.745C40.557 109.792 40.5337 109.823 40.5298 109.819Z" fill="#263238"/>
<path d="M156.123 154.336C156.196 154.325 156.271 154.325 156.345 154.336C156.562 154.371 156.765 154.465 156.933 154.608C157.07 154.725 157.181 154.87 157.256 155.033C157.332 155.196 157.372 155.374 157.373 155.554C157.373 155.971 157.373 156.454 157.373 156.995C157.373 159.167 157.392 162.301 157.404 166.168C157.404 167.137 157.404 168.153 157.404 169.208C157.426 169.496 157.353 169.784 157.197 170.027C157.041 170.27 156.81 170.455 156.539 170.555C156.4 170.603 156.254 170.628 156.107 170.629H154.842H147.573H130.91C130.71 170.63 130.512 170.586 130.332 170.499C130.152 170.412 129.994 170.284 129.87 170.127C129.747 169.969 129.66 169.786 129.617 169.59C129.586 169.403 129.576 169.214 129.586 169.025V162.628C129.586 161.235 129.586 159.868 129.586 158.525V156.535C129.586 156.208 129.586 155.881 129.586 155.558C129.585 155.385 129.619 155.214 129.685 155.055C129.751 154.895 129.848 154.75 129.97 154.628C130.093 154.506 130.238 154.409 130.398 154.344C130.558 154.278 130.729 154.245 130.902 154.246H133.689H137.221H143.559L152.732 154.277L155.227 154.297H152.732L143.559 154.328H137.221H130.941C130.641 154.328 130.354 154.447 130.142 154.659C129.931 154.87 129.812 155.158 129.812 155.457V156.434C129.812 157.092 129.812 157.754 129.812 158.424V162.527C129.812 163.921 129.812 165.338 129.812 166.779V168.955C129.801 169.13 129.81 169.305 129.839 169.477C129.875 169.642 129.948 169.796 130.053 169.928C130.158 170.062 130.291 170.17 130.444 170.244C130.596 170.318 130.763 170.357 130.933 170.357H147.596H154.865H155.734C155.995 170.379 156.258 170.357 156.512 170.291C156.755 170.206 156.963 170.043 157.104 169.827C157.245 169.612 157.31 169.356 157.291 169.099C157.291 168.044 157.291 167.028 157.291 166.058C157.291 162.192 157.318 159.05 157.322 156.886C157.322 156.345 157.322 155.862 157.322 155.445C157.326 155.274 157.293 155.104 157.226 154.946C157.159 154.788 157.059 154.646 156.933 154.53C156.771 154.388 156.575 154.291 156.364 154.246C156.212 154.34 156.123 154.343 156.123 154.336Z" fill="#263238"/>
<path d="M132.6 170.56C132.545 170.56 132.498 166.935 132.498 162.465C132.498 157.996 132.545 154.367 132.6 154.367C132.654 154.367 132.701 157.992 132.701 162.465C132.701 166.939 132.658 170.56 132.6 170.56Z" fill="#263238"/>
<path d="M135.656 170.56C135.601 170.56 135.554 166.935 135.554 162.465C135.554 157.996 135.601 154.367 135.656 154.367C135.71 154.367 135.757 157.992 135.757 162.465C135.757 166.939 135.71 170.56 135.656 170.56Z" fill="#263238"/>
<path d="M138.712 170.56C138.654 170.56 138.611 166.935 138.611 162.465C138.611 157.996 138.654 154.367 138.712 154.367C138.77 154.367 138.813 157.992 138.813 162.465C138.813 166.939 138.767 170.56 138.712 170.56Z" fill="#263238"/>
<path d="M141.768 170.56C141.71 170.56 141.667 166.935 141.667 162.465C141.667 157.996 141.71 154.367 141.768 154.367C141.826 154.367 141.869 157.992 141.869 162.465C141.869 166.939 141.822 170.56 141.768 170.56Z" fill="#263238"/>
<path d="M144.832 170.56C144.774 170.56 144.731 166.935 144.731 162.465C144.731 157.996 144.774 154.367 144.832 154.367C144.891 154.367 144.933 157.992 144.933 162.465C144.933 166.939 144.879 170.56 144.832 170.56Z" fill="#263238"/>
<path d="M147.877 170.56C147.822 170.56 147.776 166.935 147.776 162.465C147.776 157.996 147.822 154.367 147.877 154.367C147.931 154.367 147.982 157.992 147.982 162.465C147.982 166.939 147.947 170.56 147.877 170.56Z" fill="#263238"/>
<path d="M150.933 170.56C150.879 170.56 150.832 166.935 150.832 162.465C150.832 157.996 150.879 154.367 150.933 154.367C150.988 154.367 151.034 157.992 151.034 162.465C151.034 166.939 150.991 170.56 150.933 170.56Z" fill="#263238"/>
<path d="M153.989 170.56C153.935 170.56 153.888 166.935 153.888 162.465C153.888 157.996 153.935 154.367 153.989 154.367C154.044 154.367 154.091 157.992 154.091 162.465C154.091 166.939 154.048 170.56 153.989 170.56Z" fill="#263238"/>
<path d="M217.474 73.4673H124.56V85.1745H217.474V73.4673Z" fill="#263238"/>
<path d="M71.5909 73.4673H17.6215V85.1745H71.5909V73.4673Z" fill="#263238"/>
<path d="M278.919 105.225C278.864 105.225 278.817 100.125 278.817 93.8372C278.817 87.5495 278.864 82.4492 278.919 82.4492C278.973 82.4492 279.02 87.5456 279.02 93.8372C279.02 100.129 278.977 105.225 278.919 105.225Z" fill="#263238"/>
<path d="M20.4754 145.583C20.4209 145.583 20.3741 139.035 20.3741 130.956C20.3741 122.877 20.4209 116.329 20.4754 116.329C20.5299 116.329 20.5766 122.877 20.5766 130.956C20.5766 139.035 20.5338 145.583 20.4754 145.583Z" fill="white"/>
<path d="M81.8225 110.933C81.6785 111.36 81.4683 111.762 81.1996 112.124C80.9943 112.521 80.732 112.886 80.4209 113.207C80.5658 112.78 80.7759 112.378 81.0438 112.015C81.2503 111.619 81.5125 111.255 81.8225 110.933Z" fill="white"/>
<path d="M89.2081 105.537C89.188 105.598 89.1605 105.657 89.1264 105.712L88.8694 106.195C88.6397 106.611 88.2932 107.207 87.861 107.939C86.9889 109.399 85.7392 111.392 84.2714 113.53C82.8036 115.667 81.3864 117.548 80.3313 118.883C79.8018 119.553 79.3697 120.086 79.0621 120.44L78.7039 120.857C78.6655 120.907 78.6211 120.953 78.5715 120.993C78.5715 120.993 78.5988 120.931 78.6728 120.83L78.9998 120.39L80.2184 118.789C81.2424 117.435 82.6323 115.542 84.1117 113.409C85.5912 111.275 86.8371 109.298 87.7442 107.857L88.8071 106.148L89.0991 105.685C89.1575 105.587 89.2003 105.533 89.2081 105.537Z" fill="white"/>
<path d="M114.554 97.9133C114.6 97.9445 112.802 100.896 110.536 104.509C108.27 108.122 106.393 111.026 106.347 110.995C106.3 110.964 108.099 108.013 110.365 104.4C112.63 100.787 114.507 97.8822 114.554 97.9133Z" fill="white"/>
<path d="M117.715 100.207C117.762 100.234 115.165 104.563 111.91 109.874C108.655 115.184 105.984 119.467 105.934 119.436C105.883 119.405 108.484 115.079 111.739 109.769C114.994 104.458 117.668 100.176 117.715 100.207Z" fill="white"/>
<path d="M73.3039 134.223C73.2494 134.223 73.2026 123.477 73.2026 110.224C73.2026 96.9714 73.2494 86.2258 73.3039 86.2258C73.3584 86.2258 73.4051 96.9675 73.4051 110.224C73.4051 123.481 73.3584 134.223 73.3039 134.223Z" fill="white"/>
<path d="M77.5632 69.4687C77.5632 69.5232 64.976 69.5699 49.4494 69.5699C33.9228 69.5699 21.3279 69.5232 21.3279 69.4687C21.3279 69.4141 33.915 69.3674 49.4494 69.3674C64.9838 69.3674 77.5632 69.4103 77.5632 69.4687Z" fill="white"/>
<path d="M137.489 69.4687C137.489 69.5232 132.786 69.5699 126.977 69.5699C121.168 69.5699 116.465 69.5232 116.465 69.4687C116.465 69.4141 121.168 69.3674 126.977 69.3674C132.786 69.3674 137.489 69.4103 137.489 69.4687Z" fill="white"/>
<path d="M127.55 161.488C127.495 161.488 127.448 155.648 127.448 148.425C127.448 141.203 127.495 135.359 127.55 135.359C127.604 135.359 127.651 141.199 127.651 148.425C127.651 155.651 127.608 161.488 127.55 161.488Z" fill="white"/>
<path d="M99.1479 165.751C99.0934 165.751 99.0466 157.929 99.0466 148.281C99.0466 138.634 99.0934 130.816 99.1479 130.816C99.2024 130.816 99.2491 138.634 99.2491 148.281C99.2491 157.929 99.2063 165.751 99.1479 165.751Z" fill="white"/>
<path d="M201.675 65.2094C201.675 65.2639 189.275 65.3106 173.986 65.3106C158.696 65.3106 146.292 65.2639 146.292 65.2094C146.292 65.1549 158.689 65.1082 173.986 65.1082C189.282 65.1082 201.675 65.151 201.675 65.2094Z" fill="white"/>
<path d="M262.173 70.89C262.173 70.9445 252.253 70.9913 240.02 70.9913C227.787 70.9913 217.867 70.9445 217.867 70.89C217.867 70.8355 227.783 70.7888 240.02 70.7888C252.257 70.7888 262.173 70.8316 262.173 70.89Z" fill="white"/>
<path d="M258.136 73.4829H220.682V170.559H258.136V73.4829Z" fill="#FAFAFA"/>
<path d="M258.128 170.559C258.128 170.559 258.128 170.396 258.128 170.08C258.128 169.765 258.128 169.302 258.128 168.683C258.128 167.448 258.128 165.63 258.128 163.271C258.128 158.556 258.128 151.688 258.101 143.06C258.101 125.825 258.074 101.565 258.054 73.4827L258.152 73.5801H220.682L220.787 73.4788C220.787 111.735 220.76 146.253 220.752 170.555L220.682 170.485L248.118 170.524L255.547 170.544H257.494H258.155C258.155 170.544 257.937 170.544 257.509 170.544H255.59L248.192 170.563L220.713 170.598H220.643V170.528C220.643 146.226 220.643 111.707 220.612 73.4516V73.3503H258.268V73.4477C258.268 101.558 258.233 125.836 258.222 143.092C258.222 151.708 258.222 158.572 258.194 163.282C258.194 165.618 258.194 167.444 258.194 168.671C258.194 169.282 258.194 169.745 258.194 170.057C258.194 170.368 258.128 170.559 258.128 170.559Z" fill="#263238"/>
<path d="M272.888 135.912L261.064 135.908V73.5684H273.055L272.888 135.912Z" fill="#FAFAFA"/>
<path d="M272.888 135.912C272.888 135.912 272.888 135.803 272.888 135.593C272.888 135.383 272.888 135.075 272.888 134.67C272.888 133.857 272.888 132.665 272.888 131.124C272.888 128.032 272.888 123.555 272.888 117.972C272.907 106.814 272.934 91.2441 272.962 73.5879L273.063 73.6891H261.071L261.173 73.5879C261.173 99.8212 261.138 122.862 261.126 135.928L261.071 135.873L269.793 135.905H272.097H272.693H272.895H272.701H272.117H269.824L261.071 135.932H261.017V135.877C261.017 122.811 260.99 99.7705 260.97 73.5373V73.436H273.156V73.584C273.094 91.287 273.036 106.884 272.997 118.058C272.969 123.633 272.946 128.102 272.931 131.186C272.931 132.716 272.931 133.911 272.907 134.713C272.907 135.103 272.907 135.414 272.907 135.62C272.907 135.827 272.888 135.912 272.888 135.912Z" fill="#263238"/>
<path d="M252.954 107.752C252.954 107.725 253.343 107.845 254.406 107.884C255.469 107.923 257.474 107.694 257.723 107.713C257.973 107.733 260.838 107.884 260.838 107.884C260.838 107.884 260.172 108.5 259.631 108.429C259.099 108.395 258.566 108.403 258.035 108.453L257.646 108.433L258.522 109.064L258.272 111.902C258.241 111.928 258.205 111.947 258.166 111.957C258.127 111.968 258.087 111.969 258.047 111.962C258.007 111.955 257.969 111.94 257.936 111.916C257.903 111.893 257.876 111.863 257.856 111.828C257.746 111.569 257.718 111.283 257.774 111.007L257.385 112.253C257.385 112.253 256.995 112.408 256.773 112.148C256.715 112.057 256.68 111.953 256.672 111.846C256.664 111.739 256.683 111.631 256.727 111.532L256.622 110.427L255.769 109.531L254.749 109.87L255.29 111.1C255.29 111.1 255.827 112.206 255.707 112.311C255.586 112.416 255.469 112.802 255.165 112.393C254.862 111.984 254.776 111.614 254.445 111.458C254.114 111.303 252.362 110.224 252.062 109.352L252.954 107.752Z" fill="#FFBF9D"/>
<path d="M234.301 98.303C234.827 98.5763 235.312 98.9223 235.741 99.3308C236.205 99.8447 242.691 104.264 242.691 104.264L250.427 106.487L253.592 107.787L252.611 110.672L249.469 109.952C249.469 109.952 245.814 109.539 243.598 109.333C242.391 109.256 241.213 108.923 240.145 108.356L235.741 105.829L233.912 100.577L234.301 98.303Z" fill="#FF725E"/>
<path d="M246.81 132.428L242.208 143.582H218.611V132.428L246.604 132.07" fill="#E0E0E0"/>
<path d="M226.238 119.942C226.641 121.172 227.335 122.286 228.262 123.189C229.189 124.092 230.32 124.758 231.56 125.128C235.82 126.394 249.551 125.689 249.551 125.689L251.572 139.639L258.148 138.735C258.148 138.735 255.033 122.185 255.06 120.997C255.088 119.144 254.282 117.832 252.335 117.836C251.148 117.836 237.828 117.057 237.828 117.057L235.753 115.5L226.912 118.782L226.238 119.942Z" fill="#263238"/>
<path d="M246.218 129.901C246.218 129.901 247.725 129.784 247.776 128.285C247.776 127.561 247.776 126.58 247.776 125.762C247.771 125.351 247.605 124.958 247.314 124.667C247.023 124.376 246.63 124.21 246.218 124.205H226.238L224.642 125.058L224.202 127.413L225.011 129.453L246.218 129.901Z" fill="#455A64"/>
<path d="M237.073 85.8907C236.684 85.4351 236.189 84.9952 236.065 84.3995C235.94 83.8038 236.166 83.2315 235.897 82.7526C235.566 82.1492 234.686 82.0674 234.282 81.5146C234.087 81.2459 234.028 80.8955 233.834 80.623C233.645 80.4111 233.404 80.2515 233.136 80.1594C232.867 80.0674 232.579 80.046 232.3 80.0974C231.735 80.1519 231.194 80.3543 230.626 80.3894C229.847 80.44 229.068 80.1869 228.29 80.3894C227.468 80.6308 226.962 81.3588 226.425 82.0596L225.724 82.8733C225.58 83.0171 225.424 83.1474 225.257 83.2627C224.946 83.421 224.65 83.6073 224.373 83.8194C224.245 83.9533 224.146 84.1116 224.081 84.2849C224.015 84.4581 223.986 84.6427 223.993 84.8276C224.001 85.0126 224.046 85.1941 224.125 85.3614C224.204 85.5286 224.316 85.6782 224.455 85.8011C224.157 85.9031 223.9 86.0975 223.721 86.3559C223.541 86.6144 223.449 86.9233 223.458 87.2378C223.506 87.5793 223.595 87.9139 223.723 88.2345C223.849 88.5587 223.857 88.917 223.746 89.2467C223.715 89.3259 223.667 89.3981 223.608 89.459C223.548 89.52 223.477 89.5685 223.398 89.6018C223.32 89.6351 223.235 89.6525 223.15 89.653C223.065 89.6536 222.98 89.6372 222.901 89.6049C222.956 89.8287 223.059 90.0376 223.204 90.2167C223.348 90.3958 223.531 90.5405 223.738 90.6405C223.573 90.807 223.35 90.9044 223.115 90.9131C223.742 92.3925 225.451 93.1751 227.056 93.1907C228.66 93.2062 230.201 92.5989 231.692 92.0032L236.022 90.8936C236.411 90.808 236.559 90.3485 236.555 89.9553C236.494 89.567 236.508 89.1707 236.594 88.7873C236.789 88.289 237.373 88.0086 237.568 87.5298C237.813 86.9808 237.47 86.3501 237.073 85.8907Z" fill="#263238"/>
<path d="M226.83 89.8074C226.492 88.8371 226.239 87.8392 226.074 86.8251C225.909 85.8078 226 84.7655 226.339 83.7922C226.394 83.6442 226.865 82.6709 227.017 82.6865C227.168 82.702 226.837 83.6092 226.892 83.7065C227.392 84.6509 227.591 85.7253 227.464 86.7861C227.364 87.8135 227.152 88.8267 226.83 89.8074Z" fill="#263238"/>
<path d="M226.756 85.891C226.69 83.3175 228.13 81.1372 230.708 81.1411H230.945C232.101 81.2115 233.188 81.7151 233.989 82.5515C234.79 83.3879 235.246 84.4956 235.267 85.6535C235.31 87.8805 235.329 90.3489 235.243 91.5363C235.064 94.0008 232.576 94.2344 232.576 94.2344L232.635 98.2874L226.616 94.4991L226.756 85.891Z" fill="#FFBF9D"/>
<path d="M232.576 94.2381C231.437 94.1658 230.343 93.7685 229.423 93.0935C229.666 93.716 230.102 94.244 230.668 94.5994C231.234 94.9548 231.899 95.1189 232.565 95.0674L232.576 94.2381Z" fill="#FF9A6C"/>
<path d="M233.873 87.7479C233.869 87.8402 233.829 87.9271 233.761 87.9898C233.693 88.0525 233.603 88.0859 233.511 88.0828C233.466 88.0838 233.421 88.0758 233.379 88.0592C233.338 88.0426 233.3 88.0177 233.268 87.9861C233.236 87.9545 233.21 87.9168 233.193 87.8752C233.176 87.8336 233.168 87.789 233.168 87.744C233.173 87.6528 233.213 87.567 233.28 87.5047C233.347 87.4423 233.435 87.4081 233.526 87.4092C233.571 87.4087 233.616 87.4171 233.658 87.4338C233.7 87.4505 233.738 87.4753 233.77 87.5068C233.802 87.5382 233.828 87.5757 233.845 87.6171C233.863 87.6585 233.872 87.7029 233.873 87.7479Z" fill="#263238"/>
<path d="M234.675 86.6462C234.632 86.689 234.375 86.4749 233.997 86.4554C233.62 86.436 233.328 86.6034 233.289 86.5567C233.25 86.51 233.32 86.4554 233.448 86.3737C233.619 86.2702 233.817 86.2213 234.017 86.2335C234.213 86.2462 234.401 86.3197 234.554 86.4438C234.663 86.5411 234.698 86.6268 234.675 86.6462Z" fill="#263238"/>
<path d="M230.618 87.6C230.614 87.6923 230.573 87.7792 230.506 87.8419C230.438 87.9046 230.348 87.938 230.256 87.9349C230.211 87.9359 230.166 87.9279 230.124 87.9113C230.082 87.8947 230.044 87.8699 230.013 87.8382C229.981 87.8066 229.955 87.7689 229.938 87.7273C229.921 87.6857 229.913 87.6411 229.913 87.5962C229.918 87.5042 229.959 87.4179 230.026 87.3554C230.094 87.2929 230.183 87.2592 230.275 87.2613C230.32 87.2603 230.365 87.2683 230.407 87.2849C230.448 87.3015 230.486 87.3263 230.518 87.358C230.55 87.3896 230.576 87.4273 230.593 87.4689C230.61 87.5105 230.618 87.5551 230.618 87.6Z" fill="#263238"/>
<path d="M230.957 86.576C230.91 86.6188 230.657 86.4047 230.275 86.3814C229.894 86.358 229.61 86.5332 229.571 86.4826C229.532 86.432 229.602 86.3814 229.726 86.3035C229.897 86.1988 230.095 86.1498 230.295 86.1633C230.493 86.1736 230.683 86.2473 230.836 86.3736C230.945 86.4709 230.98 86.5566 230.957 86.576Z" fill="#263238"/>
<path d="M232.14 89.5662C232.343 89.5184 232.551 89.4948 232.759 89.4961C232.857 89.4961 232.95 89.4766 232.97 89.4104C232.986 89.3119 232.969 89.2108 232.923 89.1223C232.849 88.8809 232.767 88.6318 232.682 88.367C232.456 87.7263 232.28 87.0689 232.156 86.4009C232.437 87.0206 232.666 87.6626 232.841 88.3203C232.919 88.585 232.997 88.8381 233.071 89.099C233.123 89.222 233.133 89.3591 233.098 89.4883C233.081 89.5217 233.057 89.5508 233.027 89.5737C232.998 89.5966 232.963 89.6126 232.927 89.6207C232.873 89.6279 232.818 89.6279 232.763 89.6207C232.554 89.6301 232.345 89.6118 232.14 89.5662Z" fill="#263238"/>
<path d="M231.007 89.7609C231.07 89.7609 231.046 90.1735 231.397 90.4889C231.747 90.8043 232.175 90.7809 232.175 90.8393C232.175 90.8977 232.07 90.9133 231.887 90.9055C231.646 90.8952 231.415 90.8001 231.237 90.6369C231.067 90.4788 230.965 90.2611 230.953 90.0295C230.929 89.8582 230.98 89.757 231.007 89.7609Z" fill="#263238"/>
<path d="M231.031 85.0384C230.984 85.1357 230.61 85.0656 230.162 85.0929C229.715 85.1201 229.349 85.2175 229.294 85.124C229.24 85.0306 229.341 84.9839 229.489 84.8943C229.688 84.7793 229.913 84.7151 230.143 84.7074C230.373 84.6936 230.602 84.735 230.813 84.8281C230.972 84.9021 231.05 84.9878 231.031 85.0384Z" fill="#263238"/>
<path d="M234.597 85.3767C234.523 85.4585 234.27 85.3534 233.954 85.33C233.639 85.3067 233.374 85.3534 233.316 85.26C233.258 85.1665 233.339 85.1315 233.46 85.0575C233.622 84.9696 233.806 84.9315 233.99 84.9481C234.174 84.9648 234.348 85.0353 234.492 85.1509C234.597 85.2638 234.628 85.3378 234.597 85.3767Z" fill="#263238"/>
<path d="M226.845 87.7283C226.802 87.7089 225.183 87.1249 225.132 88.8107C225.081 90.4965 226.791 90.2006 226.794 90.1539C226.798 90.1072 226.845 87.7283 226.845 87.7283Z" fill="#FFBF9D"/>
<path d="M226.296 89.5C226.296 89.5 226.269 89.5195 226.218 89.539C226.183 89.5536 226.146 89.5612 226.108 89.5612C226.069 89.5612 226.032 89.5536 225.997 89.539C225.89 89.4666 225.804 89.3672 225.748 89.251C225.692 89.1348 225.667 89.0058 225.677 88.8771C225.678 88.7314 225.711 88.5877 225.775 88.4566C225.792 88.4046 225.821 88.3575 225.86 88.3195C225.9 88.2815 225.948 88.2537 226 88.2386C226.035 88.2302 226.07 88.2343 226.102 88.2499C226.133 88.2656 226.158 88.292 226.172 88.3242C226.195 88.371 226.172 88.406 226.191 88.406C226.211 88.406 226.226 88.3787 226.215 88.3087C226.208 88.267 226.186 88.2295 226.152 88.2035C226.13 88.185 226.105 88.171 226.078 88.1623C226.05 88.1536 226.021 88.1504 225.993 88.1529C225.923 88.1652 225.858 88.1948 225.803 88.2391C225.747 88.2833 225.704 88.3407 225.677 88.406C225.601 88.5513 225.561 88.7129 225.56 88.8771C225.548 89.0246 225.579 89.1726 225.647 89.3036C225.716 89.4346 225.821 89.5433 225.95 89.6168C225.995 89.6313 226.042 89.6353 226.089 89.6286C226.135 89.6218 226.18 89.6045 226.218 89.5779C226.292 89.5467 226.304 89.5039 226.296 89.5Z" fill="#FF9A6C"/>
<path d="M234.227 82.8346C234.504 82.6906 233.702 81.7912 233.036 81.472C232.031 80.9892 230.486 80.6933 229.532 80.923C228.984 81.0327 228.465 81.2538 228.006 81.5726C227.547 81.8914 227.159 82.3011 226.865 82.7762C226.301 83.8099 226.021 84.9747 226.055 86.1518C226.032 86.5112 226.106 86.8701 226.269 87.1913C226.499 87.5806 226.947 87.8142 226.915 88.3281C226.901 88.5161 226.961 88.7023 227.083 88.8459C227.387 89.1808 227.768 88.881 227.947 88.5734C228.281 87.8887 228.449 87.1352 228.438 86.3737C228.501 85.8373 228.476 85.2941 228.364 84.7657C228.286 84.4815 228.157 84.2129 228.099 83.9248C228.059 83.7831 228.051 83.6345 228.074 83.4893C228.098 83.344 228.153 83.2057 228.235 83.0838C228.277 83.0351 228.324 82.9907 228.375 82.9514C228.614 82.7494 228.902 82.615 229.211 82.5623C229.519 82.5095 229.835 82.5404 230.127 82.6516C231.074 83.0059 232.685 83.5432 233.118 83.2279C233.427 83.0349 233.692 82.7788 233.896 82.4765L234.227 82.8346Z" fill="#263238"/>
<path d="M229.637 80.6973C230.102 80.5425 230.594 80.4813 231.083 80.5174C231.572 80.5535 232.049 80.6861 232.487 80.9076C232.721 81.0219 232.93 81.1821 233.101 81.3787C233.272 81.5754 233.402 81.8044 233.483 82.0522C233.555 82.3026 233.537 82.5703 233.431 82.8082C233.324 83.0461 233.138 83.2389 232.903 83.3526H232.868C232.239 83.5501 231.558 83.4999 230.964 83.2124C230.365 82.9905 229.835 82.6051 229.232 82.387C228.588 82.1568 227.89 82.1229 227.227 82.2897C227.877 81.5571 228.708 81.008 229.637 80.6973Z" fill="#263238"/>
<path d="M226.203 94.8339C226.203 94.8339 222.672 98.9725 222.699 101.865C222.699 103.423 226.261 119.942 226.261 119.942L236.174 116.271C236.476 116.159 236.73 115.946 236.894 115.669C237.058 115.392 237.121 115.067 237.073 114.748L235.765 106.09L234.324 98.3029L232.822 97.2088L232.705 96.399L232.514 96.0097L226.736 93.5569L226.203 94.8339Z" fill="#FF725E"/>
<path d="M250.427 114.32L257.684 115.146L258.44 113.935L254.083 112.724L250.996 112.942L250.427 114.32Z" fill="#263238"/>
<path d="M263.851 107.612L262.076 113.935H263.89L266.366 107.02L263.851 107.612Z" fill="#263238"/>
<path d="M251.899 136.189C251.899 136.189 255.403 116.971 255.983 115.527C256.563 114.082 256.466 113.471 258.782 113.269C261.099 113.066 272.907 113.269 272.907 113.269V135.916L258.156 136.134L258.093 143.781L250.427 143.419L251.899 136.189Z" fill="#263238"/>
<path d="M219.927 86.759C219.927 86.759 223.115 87.0705 223.583 88.3164C223.921 89.2196 223.769 92.8054 223.657 94.6898C223.639 95.0065 223.5 95.3042 223.269 95.5216C223.038 95.7389 222.732 95.8593 222.415 95.8578C222.415 95.8578 224.05 97.2944 224.206 97.8628C224.361 98.4312 227.394 116.703 227.083 119.938C226.771 123.173 225.841 124.727 225.841 124.727L219.927 125.038V86.759Z" fill="#455A64"/>
<path d="M227.476 124.306C227.429 124.256 231.393 113.833 232.148 110.454C232.903 107.075 232.822 97.1582 232.822 97.1582C233.141 97.1582 234.2 97.9018 234.503 98.3028C234.503 98.3028 234.371 107.234 233.927 110.672C233.483 114.11 230.096 125.163 230.096 125.163L227.476 124.306Z" fill="#263238"/>
<path d="M227.476 124.306C227.536 124.316 227.594 124.332 227.651 124.353L228.153 124.505L230.1 125.124L230.046 125.151C230.704 122.909 231.801 119.28 232.969 114.705C233.254 113.557 233.553 112.369 233.748 111.088C233.943 109.808 234.013 108.476 234.095 107.098C234.239 104.333 234.32 101.398 234.379 98.3572V98.3027L234.398 98.365C234.17 98.1093 233.908 97.8853 233.62 97.6992C233.485 97.602 233.344 97.5123 233.199 97.4306C233.071 97.3503 232.93 97.2923 232.783 97.2593L232.888 97.1581C232.888 101.071 232.849 104.777 232.557 108.126C232.485 108.943 232.366 109.756 232.199 110.559C232.016 111.338 231.786 112.07 231.564 112.778C231.116 114.195 230.665 115.503 230.248 116.691C229.411 119.066 228.691 120.974 228.216 122.274L227.437 124.306C227.474 124.123 227.527 123.943 227.597 123.769L228.149 122.251C228.617 120.931 229.317 119.023 230.12 116.644C230.509 115.453 230.972 114.149 231.412 112.731C231.63 112.023 231.856 111.287 232.035 110.52C232.196 109.724 232.31 108.919 232.378 108.11C232.662 104.773 232.709 101.067 232.689 97.162V97.0452H232.79C232.972 97.0758 233.145 97.142 233.3 97.2398C233.452 97.3255 233.596 97.4189 233.74 97.5202C234.041 97.7204 234.314 97.9586 234.554 98.2287V98.256V98.3494C234.5 101.394 234.41 104.33 234.262 107.098C234.176 108.48 234.102 109.823 233.9 111.104C233.698 112.385 233.378 113.588 233.09 114.733C231.895 119.311 230.754 122.932 230.081 125.163V125.206H230.038L228.149 124.544L227.655 124.372C227.594 124.354 227.534 124.332 227.476 124.306Z" fill="#455A64"/>
<path d="M227.737 124.587C227.737 124.404 231.214 118.003 235.348 116.562L237.638 117.232C237.638 117.232 230.816 122.107 230.096 125.163L227.737 124.587Z" fill="#263238"/>
<path d="M227.737 124.587C227.793 124.592 227.85 124.602 227.904 124.618L228.371 124.715L230.088 125.105L230.018 125.147C230.231 124.467 230.558 123.827 230.984 123.255C231.511 122.552 232.087 121.887 232.709 121.266C234.228 119.775 235.856 118.399 237.579 117.151L237.61 117.33L237.532 117.306L235.321 116.66H235.383C234.014 117.221 232.779 118.068 231.763 119.144C230.928 119.991 230.162 120.903 229.469 121.869C228.829 122.736 228.25 123.647 227.737 124.595C227.823 124.32 227.945 124.059 228.099 123.816C228.486 123.123 228.908 122.449 229.364 121.799C230.051 120.812 230.816 119.882 231.654 119.019C232.683 117.916 233.938 117.048 235.333 116.473H235.36H235.395L237.606 117.119L237.68 117.143L237.879 117.201L237.712 117.322C235.988 118.564 234.354 119.927 232.822 121.398C232.203 122.009 231.626 122.659 231.093 123.345C230.668 123.896 230.339 124.514 230.12 125.175V125.229H230.065L228.336 124.778L227.885 124.653C227.833 124.637 227.784 124.614 227.737 124.587Z" fill="#455A64"/>
<path d="M226.067 97.1582C223.82 98.3028 224.646 102.804 225.343 104.739C226.561 108.122 228.457 113.444 229.466 114.359C230.852 115.64 240.756 119 240.756 119L242.676 115.371L233.378 110.427C233.378 110.427 233.378 109.679 232.989 109.574C232.6 109.469 231.533 102.523 231.533 102.523C231.533 102.523 231.144 99.8212 230.166 98.5442" fill="#FF725E"/>
<path d="M230.19 98.544C230.374 98.7734 230.53 99.0245 230.653 99.2915C231.001 100.056 231.262 100.856 231.432 101.678C231.556 102.208 231.642 102.803 231.751 103.45C231.86 104.096 231.988 104.797 232.117 105.544C232.245 106.292 232.405 107.102 232.584 107.927C232.678 108.344 232.771 108.776 232.903 109.2C232.934 109.3 232.974 109.397 233.024 109.488C232.997 109.488 233.102 109.515 233.153 109.558C233.206 109.601 233.252 109.652 233.289 109.71C233.405 109.931 233.466 110.177 233.468 110.426L233.421 110.353L242.726 115.285L242.812 115.332L242.765 115.418C242.154 116.586 241.508 117.8 240.846 119.046L240.807 119.124L240.725 119.093L238.922 118.466C237.034 117.8 235.2 117.123 233.445 116.418C232.569 116.064 231.712 115.702 230.89 115.309L230.279 115.005C230.085 114.888 229.89 114.787 229.695 114.659L229.419 114.452C229.336 114.371 229.258 114.285 229.185 114.195C229.052 114.016 228.931 113.829 228.823 113.635C228.427 112.893 228.072 112.13 227.76 111.349C227.441 110.571 227.149 109.846 226.876 109.122C226.327 107.682 225.841 106.327 225.401 105.093C224.993 103.979 224.731 102.817 224.622 101.635C224.514 100.742 224.563 99.837 224.766 98.9606C224.887 98.4007 225.177 97.8913 225.596 97.5006C225.653 97.4369 225.72 97.3829 225.794 97.341L225.954 97.2437L226.086 97.1697L225.965 97.2631L225.814 97.3682C225.741 97.4095 225.676 97.4636 225.623 97.5279C225.226 97.9248 224.955 98.43 224.844 98.9801C224.654 99.8482 224.618 100.743 224.735 101.624C224.857 102.793 225.129 103.942 225.545 105.042C225.993 106.276 226.487 107.623 227.04 109.064C227.316 109.78 227.612 110.524 227.932 111.279C228.251 112.057 228.613 112.816 229.018 113.553C229.198 113.941 229.48 114.272 229.835 114.511C230.011 114.631 230.225 114.733 230.404 114.845L231.003 115.149C231.821 115.538 232.674 115.893 233.55 116.243C235.302 116.944 237.135 117.621 239 118.287L240.803 118.914L240.682 118.965L242.602 115.336L242.644 115.472L233.355 110.512L233.312 110.489V110.438C233.313 110.219 233.262 110.003 233.164 109.807C233.139 109.766 233.106 109.731 233.067 109.702C233.036 109.663 233.005 109.702 232.907 109.597C232.844 109.491 232.796 109.377 232.763 109.258C232.627 108.822 232.537 108.39 232.448 107.97C232.273 107.129 232.129 106.331 231.996 105.579C231.864 104.828 231.759 104.127 231.65 103.481C231.541 102.834 231.467 102.235 231.35 101.709C231.187 100.892 230.939 100.093 230.61 99.3266C230.52 99.1271 230.417 98.9334 230.303 98.7465C230.225 98.6102 230.19 98.544 230.19 98.544Z" fill="#263238"/>
<path d="M219.927 85.8794C219.927 85.8794 218.12 86.2298 217.673 87.6392C217.225 89.0486 217.673 132.413 217.673 132.413H246.81C246.81 132.413 247.281 129.076 244.171 128.43C241.06 127.783 230.31 128.231 230.31 128.231C230.31 128.231 226.53 124.548 225.685 123.804C224.84 123.061 224.49 122.481 223.295 122.695C222.099 122.909 221.208 123.057 221.208 123.057V108.542L219.927 104.809V85.8794Z" fill="#263238"/>
<path d="M242.796 119.315C242.796 119.315 241.543 119.806 241.66 121.098C241.714 121.836 241.905 122.557 242.224 123.224L244.171 143.208H245.849L243.999 122.5V120.047L242.796 119.315Z" fill="#263238"/>
<path d="M242.796 119.315C242.796 119.315 242.824 119.315 242.878 119.354L243.112 119.483L244.03 120.016C244.03 120.639 244.03 121.468 244.03 122.469C244.42 126.794 245.124 134.421 245.927 143.174V143.283H244.046V143.193C243.267 134.892 242.563 127.62 242.138 123.205V123.224C241.869 122.646 241.693 122.028 241.617 121.394C241.578 121.136 241.578 120.874 241.617 120.616C241.66 120.402 241.743 120.199 241.862 120.016C242.029 119.77 242.248 119.564 242.504 119.413C242.569 119.374 242.637 119.34 242.707 119.311C242.75 119.311 242.777 119.284 242.777 119.288L242.711 119.327C242.668 119.35 242.602 119.385 242.52 119.44C242.278 119.598 242.071 119.805 241.912 120.047C241.802 120.226 241.727 120.424 241.691 120.631C241.663 120.882 241.673 121.135 241.718 121.383C241.804 122.002 241.985 122.605 242.255 123.17V123.193C242.695 127.608 243.423 134.873 244.248 143.174L244.147 143.08H245.825L245.728 143.193C244.949 134.433 244.299 126.806 243.925 122.477C243.925 121.476 243.925 120.647 243.953 120.024V120.051L243.104 119.525L242.874 119.378L242.796 119.315Z" fill="#455A64"/>
<path d="M232.545 96.1032C232.578 96.2559 232.578 96.4139 232.545 96.5666C232.485 96.9818 232.353 97.3835 232.156 97.754L232.125 97.8163L232.055 97.7891C231.436 97.5477 230.676 97.2284 229.87 96.8508C228.85 96.3797 227.947 95.9086 227.305 95.5504C226.948 95.3733 226.609 95.1621 226.292 94.9197C226.664 95.061 227.024 95.2289 227.371 95.4219C228.029 95.749 228.928 96.2006 229.956 96.6678C230.758 97.0571 231.513 97.3725 232.117 97.6372L232.012 97.6762C232.265 97.1806 232.445 96.6507 232.545 96.1032Z" fill="#263238"/>
<path d="M234.971 100.534C235.016 100.679 235.042 100.829 235.048 100.981C235.095 101.316 235.146 101.725 235.212 102.208C235.348 103.243 235.555 104.672 235.796 106.245C236.037 107.818 236.252 109.2 236.419 110.279C236.489 110.765 236.544 111.174 236.59 111.505C236.62 111.655 236.633 111.808 236.629 111.961C236.573 111.818 236.534 111.669 236.512 111.517L236.279 110.302C236.088 109.274 235.839 107.853 235.597 106.276C235.356 104.7 235.169 103.267 235.068 102.223C235.017 101.706 234.986 101.281 234.971 100.989C234.955 100.838 234.955 100.685 234.971 100.534Z" fill="#263238"/>
<path d="M271.044 103.458L247.884 113.591C247.465 113.775 247.274 114.263 247.457 114.683L247.527 114.844C247.711 115.263 248.2 115.455 248.62 115.271L271.779 105.138C272.199 104.955 272.39 104.466 272.207 104.046L272.136 103.886C271.953 103.466 271.464 103.275 271.044 103.458Z" fill="#455A64"/>
<path d="M247.593 120.487C247.593 120.257 246.908 117.711 246.678 117.415C246.448 117.119 242.446 115.978 242.466 115.939L241.126 118.322L241.582 118.712C241.975 119.056 242.414 119.346 242.886 119.572L243.248 120.865C243.248 120.865 243.314 121.55 243.345 121.811C243.377 122.071 244.163 122.009 244.163 122.009C244.327 122.235 244.942 122.075 244.942 122.075H245.569C245.308 122.597 245.763 122.694 245.763 122.694L246.483 122.367C247.562 122.204 247.071 121.519 247.071 121.519C247.29 121.199 247.465 120.852 247.593 120.487Z" fill="#FFBF9D"/>
<path d="M244.264 121.97C244.206 121.97 244.307 121.32 244.264 120.529C244.221 119.739 244.061 119.116 244.12 119.101C244.533 120.004 244.584 121.031 244.26 121.97H244.264Z" fill="#FF9A6C"/>
<path d="M245.428 121.986C245.401 121.986 245.455 121.818 245.49 121.558C245.534 121.221 245.525 120.879 245.463 120.545C245.315 119.767 245.074 119.136 245.128 119.113C245.183 119.089 245.237 119.249 245.346 119.502C245.493 119.827 245.6 120.168 245.666 120.518C245.731 120.875 245.719 121.241 245.63 121.593C245.557 121.861 245.451 121.998 245.428 121.986Z" fill="#FF9A6C"/>
<path d="M245.479 122.114C245.479 122.087 245.646 121.994 245.907 121.819C246.077 121.727 246.216 121.587 246.307 121.417C246.399 121.246 246.438 121.053 246.421 120.861C246.296 120.279 246.237 119.685 246.246 119.089C246.442 119.655 246.573 120.242 246.635 120.837C246.654 120.964 246.648 121.094 246.617 121.218C246.585 121.342 246.529 121.459 246.452 121.562C246.328 121.722 246.172 121.855 245.993 121.951C245.67 122.091 245.487 122.138 245.479 122.114Z" fill="#FF9A6C"/>
<path d="M246.997 121.659C246.97 121.71 246.822 121.686 246.643 121.686C246.464 121.686 246.316 121.686 246.292 121.647C246.269 121.609 246.421 121.48 246.647 121.484C246.873 121.488 247.024 121.612 246.997 121.659Z" fill="#FF9A6C"/>
<path d="M244.112 119.015C244.058 118.996 244.112 118.751 243.96 118.505C243.808 118.26 243.61 118.147 243.625 118.089C243.641 118.03 243.707 118.054 243.816 118.089C243.954 118.154 244.068 118.262 244.139 118.396C244.212 118.532 244.237 118.689 244.209 118.84C244.186 118.969 244.135 119.023 244.112 119.015Z" fill="#FF9A6C"/>
<path d="M245.218 118.634C245.159 118.634 245.14 118.431 245.043 118.244C244.945 118.058 244.817 117.902 244.848 117.855C244.879 117.808 245.105 117.898 245.237 118.163C245.37 118.427 245.28 118.645 245.218 118.634Z" fill="#FF9A6C"/>
<path d="M246.102 118.747C246.043 118.747 246.024 118.509 245.93 118.248C245.837 117.988 245.709 117.793 245.751 117.754C245.794 117.715 246.012 117.871 246.121 118.182C246.23 118.494 246.152 118.747 246.102 118.747Z" fill="#FF9A6C"/>
<path d="M220.682 73.5684H217.758V170.645H220.682V73.5684Z" fill="#FF725E"/>
<path d="M220.682 170.645C220.682 170.645 220.682 170.473 220.682 170.139C220.682 169.804 220.682 169.313 220.682 168.671C220.682 167.378 220.682 165.478 220.682 163.033C220.682 158.135 220.682 151.053 220.651 142.286C220.651 124.766 220.627 100.506 220.608 73.5684L220.709 73.6696H217.785L217.887 73.5684C217.848 120.83 217.816 160.409 217.809 170.645L217.785 170.621H219.989H220.709C220.709 170.621 220.483 170.621 220.005 170.621H217.785H217.762V170.598C217.762 160.362 217.723 120.783 217.684 73.5216V73.4204H220.799V73.5839C220.799 100.553 220.772 124.832 220.76 142.375C220.76 151.135 220.736 158.209 220.729 163.099C220.729 165.537 220.729 167.429 220.729 168.714C220.729 169.352 220.729 169.839 220.729 170.17C220.729 170.501 220.682 170.645 220.682 170.645Z" fill="#263238"/>
<path d="M257.603 157.968C257.603 158.026 249.38 158.069 239.238 158.069C229.096 158.069 220.873 158.026 220.873 157.968C220.873 157.91 229.096 157.867 239.238 157.867C249.38 157.867 257.603 157.913 257.603 157.968Z" fill="#263238"/>
<path d="M257.716 165.112C257.716 165.17 249.47 165.213 239.296 165.213C229.123 165.213 220.873 165.17 220.873 165.112C220.873 165.054 229.119 165.011 239.296 165.011C249.473 165.011 257.716 165.077 257.716 165.112Z" fill="#263238"/>
<path d="M258.148 143.583C258.148 143.641 249.754 143.684 239.397 143.684C229.041 143.684 220.647 143.641 220.647 143.583C220.647 143.524 229.041 143.481 239.397 143.481C249.754 143.481 258.148 143.528 258.148 143.583Z" fill="#263238"/>
<path d="M257.801 151.061C257.801 151.116 249.543 151.162 239.355 151.162C229.166 151.162 220.908 151.116 220.908 151.061C220.908 151.007 229.166 150.96 239.355 150.96C249.543 150.96 257.801 150.995 257.801 151.061Z" fill="#263238"/>
<path d="M257.801 113.405C257.701 113.438 257.598 113.464 257.494 113.483C257.213 113.601 256.965 113.787 256.773 114.024C256.263 114.635 255.827 115.745 255.605 117.139C255.072 119.981 254.336 123.874 253.526 128.176C252.717 132.478 251.938 136.352 251.389 139.206C251.109 140.604 250.879 141.737 250.715 142.547C250.638 142.936 250.571 143.228 250.525 143.45C250.506 143.557 250.479 143.663 250.443 143.765C250.447 143.656 250.462 143.548 250.486 143.442C250.525 143.216 250.575 142.913 250.638 142.531C250.785 141.721 250.992 140.584 251.245 139.183C251.782 136.341 252.514 132.443 253.328 128.141C254.142 123.839 254.912 119.965 255.465 117.115C255.722 115.694 256.186 114.577 256.727 113.962C256.935 113.72 257.204 113.537 257.505 113.432C257.611 113.413 257.692 113.405 257.747 113.397C257.801 113.389 257.801 113.401 257.801 113.405Z" fill="#455A64"/>
<path d="M225.95 127.039L227.531 124.505L229.75 125.077L228.488 127.954L225.95 127.039Z" fill="#263238"/>
<path d="M261.064 73.5684H258.14V170.396H261.064V73.5684Z" fill="#FF725E"/>
<path d="M261.064 170.396C261.064 170.396 261.064 170.224 261.064 169.893C261.064 169.562 261.064 169.068 261.064 168.429C261.064 167.141 261.064 165.245 261.064 162.804C261.064 157.921 261.044 150.855 261.033 142.111C261.033 124.629 261.005 100.452 260.99 73.5879L261.091 73.6891H258.128L258.229 73.5879C258.19 120.724 258.159 160.195 258.152 170.415L258.128 170.392H260.332H261.052C261.052 170.392 260.826 170.392 260.347 170.392H258.128V170.368C258.128 160.152 258.089 120.678 258.05 73.5412V73.4399H261.165V73.584C261.165 100.483 261.134 124.703 261.126 142.2C261.126 150.937 261.103 157.991 261.095 162.87C261.095 165.303 261.095 167.188 261.095 168.472C261.095 169.107 261.095 169.594 261.095 169.925C261.095 170.255 261.064 170.396 261.064 170.396Z" fill="#263238"/>
<path d="M229.843 125.622L227.507 124.824C227.43 124.8 227.358 124.76 227.297 124.707C227.235 124.654 227.184 124.59 227.148 124.517C227.112 124.444 227.09 124.365 227.085 124.284C227.08 124.203 227.091 124.122 227.118 124.046C227.143 123.969 227.184 123.898 227.237 123.837C227.29 123.776 227.354 123.726 227.426 123.689C227.499 123.653 227.578 123.632 227.658 123.626C227.739 123.62 227.82 123.631 227.896 123.656L230.232 124.454C230.309 124.48 230.38 124.52 230.441 124.573C230.502 124.626 230.552 124.691 230.589 124.763C230.625 124.835 230.646 124.914 230.652 124.995C230.658 125.075 230.647 125.156 230.622 125.233C230.596 125.31 230.556 125.381 230.503 125.442C230.45 125.503 230.386 125.553 230.313 125.589C230.241 125.625 230.162 125.647 230.081 125.653C230.001 125.658 229.92 125.648 229.843 125.622Z" fill="#FF725E"/>
<path d="M262.458 100.082C262.411 100.055 263.992 97.314 265.989 93.9696C267.986 90.6252 269.645 87.9271 269.691 87.9583C269.738 87.9894 268.161 90.7225 266.164 94.0708C264.167 97.4191 262.504 100.109 262.458 100.082Z" fill="#263238"/>
<path d="M262.559 95.3477C262.65 95.1732 262.756 95.0077 262.878 94.8532L263.793 93.5334C264.572 92.4199 265.6 90.8665 266.686 89.1106C267.772 87.3547 268.695 85.7273 269.349 84.5437C269.66 83.9753 269.917 83.5003 270.127 83.1343C270.214 82.9574 270.316 82.7881 270.431 82.6282C270.37 82.8166 270.292 82.999 270.198 83.1732C270.038 83.5159 269.808 84.0064 269.485 84.6099C268.866 85.8168 267.959 87.4559 266.873 89.2196C265.786 90.9833 264.72 92.525 263.922 93.6191C263.532 94.1641 263.19 94.6041 262.952 94.9C262.835 95.0612 262.704 95.2111 262.559 95.3477Z" fill="#263238"/>
<path d="M217.758 137.248C217.704 137.248 217.657 123.002 217.657 105.432C217.657 87.8609 217.704 73.6113 217.758 73.6113C217.813 73.6113 217.859 87.857 217.859 105.432C217.859 123.006 217.813 137.248 217.758 137.248Z" fill="#263238"/>
<path d="M108.188 162.352C108.598 162.547 108.964 162.823 109.264 163.163C109.564 163.502 109.793 163.899 109.936 164.33C110.222 165.198 110.306 166.119 110.181 167.024C109.987 168.764 109.013 170.528 107.935 171.91C106.467 170.633 106.132 168.406 106.031 167.262C105.875 165.455 106.685 162.099 108.204 162.368" fill="#455A64"/>
<path d="M107.919 171.926C106.856 171 106.198 169.392 106.015 167.254C105.899 165.927 106.323 163.532 107.281 162.656C107.398 162.536 107.543 162.445 107.703 162.391C107.863 162.338 108.033 162.323 108.2 162.349C108.611 162.543 108.978 162.819 109.279 163.16C109.58 163.5 109.809 163.899 109.952 164.33C110.237 165.196 110.317 166.115 110.185 167.017C110.065 168.06 109.578 169.742 107.935 171.907L107.919 171.926ZM108.017 162.364C107.743 162.372 107.482 162.485 107.289 162.68C106.335 163.552 105.91 165.934 106.027 167.262C106.21 169.368 106.864 170.972 107.915 171.895C109.555 169.754 110.041 168.064 110.158 167.025C110.289 166.127 110.209 165.211 109.924 164.35C109.783 163.92 109.556 163.523 109.257 163.184C108.958 162.845 108.593 162.57 108.184 162.376C108.129 162.364 108.073 162.356 108.017 162.353V162.364Z" fill="#263238"/>
<path d="M109.621 174.78C109.523 174.284 109.557 173.772 109.72 173.294C109.883 172.815 110.168 172.388 110.547 172.055C110.935 171.728 111.384 171.482 111.868 171.331C112.352 171.18 112.861 171.127 113.366 171.175C113.6 171.172 113.832 171.22 114.045 171.316C114.258 171.412 114.448 171.554 114.6 171.732C114.711 171.92 114.77 172.135 114.77 172.355C114.77 172.574 114.711 172.789 114.6 172.977C114.379 173.352 114.064 173.662 113.685 173.877C112.416 174.655 111.042 175.212 109.609 174.78" fill="#455A64"/>
<path d="M110.656 174.943C110.304 174.944 109.954 174.892 109.617 174.791C109.507 174.296 109.539 173.779 109.71 173.3C109.882 172.819 110.171 172.388 110.551 172.047C110.939 171.719 111.389 171.472 111.874 171.321C112.358 171.17 112.869 171.118 113.374 171.167C113.61 171.16 113.844 171.206 114.059 171.302C114.274 171.399 114.465 171.543 114.616 171.724C114.733 171.912 114.797 172.128 114.8 172.35C114.804 172.571 114.747 172.79 114.635 172.981C114.415 173.362 114.096 173.677 113.713 173.892C112.572 174.597 111.579 174.943 110.656 174.943ZM109.629 174.772C110.839 175.134 112.132 174.85 113.693 173.869C114.074 173.655 114.392 173.343 114.612 172.966C114.72 172.776 114.775 172.562 114.771 172.344C114.768 172.126 114.706 171.913 114.593 171.727C114.442 171.55 114.254 171.409 114.042 171.314C113.829 171.219 113.599 171.173 113.366 171.178H113.039C112.131 171.162 111.247 171.478 110.555 172.066C110.177 172.405 109.891 172.833 109.722 173.312C109.553 173.78 109.52 174.286 109.629 174.772Z" fill="#263238"/>
<path d="M107.74 180.114C107.748 179.993 107.766 179.873 107.795 179.755C107.841 179.506 107.9 179.179 107.97 178.79C108.134 177.715 108.471 176.674 108.967 175.706C109.483 174.739 110.248 173.926 111.182 173.351C111.466 173.184 111.769 173.053 112.085 172.962C112.171 172.934 112.258 172.912 112.346 172.895C112.377 172.892 112.408 172.892 112.439 172.895C112.019 173.041 111.613 173.228 111.229 173.452C110.326 174.036 109.587 174.84 109.08 175.788C108.59 176.745 108.247 177.77 108.059 178.829C107.97 179.218 107.9 179.561 107.841 179.787C107.82 179.899 107.786 180.009 107.74 180.114Z" fill="#263238"/>
<path d="M107.799 164.98C107.803 165.032 107.803 165.084 107.799 165.136C107.799 165.249 107.799 165.401 107.826 165.584C107.846 165.973 107.869 166.538 107.892 167.235C107.939 168.629 107.974 170.552 107.962 172.685C107.951 174.819 107.904 176.738 107.846 178.136C107.818 178.833 107.787 179.394 107.764 179.783C107.764 179.97 107.74 180.118 107.733 180.231C107.725 180.344 107.733 180.39 107.713 180.386C107.709 180.335 107.709 180.282 107.713 180.231C107.713 180.114 107.713 179.966 107.713 179.783C107.713 179.394 107.737 178.817 107.752 178.132C107.787 176.738 107.822 174.815 107.834 172.681C107.846 170.548 107.834 168.629 107.799 167.231C107.799 166.546 107.779 165.985 107.772 165.58V165.132C107.773 165.081 107.782 165.029 107.799 164.98Z" fill="#263238"/>
<path d="M107.086 175.839C106.908 174.786 106.483 173.791 105.844 172.936C105.206 172.08 104.373 171.388 103.415 170.918C102.924 170.68 102.286 170.529 101.885 170.895C101.484 171.261 101.569 171.911 101.768 172.417C102.199 173.468 102.933 174.368 103.877 175.002C104.82 175.636 105.93 175.976 107.067 175.979" fill="#455A64"/>
<path d="M106.993 175.979C105.866 175.959 104.769 175.61 103.839 174.974C102.908 174.338 102.184 173.443 101.756 172.401C101.635 172.085 101.398 171.299 101.877 170.867C102.068 170.692 102.527 170.477 103.434 170.867C104.394 171.339 105.228 172.033 105.868 172.892C106.507 173.75 106.932 174.748 107.109 175.803H107.067C106.897 174.749 106.472 173.752 105.829 172.899C105.194 172.041 104.362 171.349 103.403 170.882C102.519 170.462 102.071 170.684 101.881 170.855C101.69 171.026 101.402 171.427 101.768 172.373C102.194 173.412 102.916 174.302 103.843 174.935C104.77 175.567 105.863 175.914 106.985 175.932H107.067L106.993 175.979Z" fill="#263238"/>
<path d="M103.652 172.561C103.759 172.597 103.862 172.643 103.96 172.697C104.082 172.752 104.2 172.815 104.314 172.884C104.443 172.966 104.602 173.048 104.758 173.164C104.936 173.285 105.107 173.415 105.272 173.554C105.455 173.698 105.63 173.869 105.817 174.048C106.209 174.452 106.555 174.897 106.849 175.376C107.137 175.866 107.366 176.389 107.53 176.933C107.601 177.168 107.659 177.408 107.701 177.65C107.744 177.859 107.774 178.071 107.791 178.284C107.809 178.459 107.817 178.634 107.814 178.81C107.824 178.939 107.824 179.07 107.814 179.199C107.812 179.313 107.8 179.426 107.779 179.538C107.748 179.538 107.799 179.055 107.713 178.284C107.692 178.075 107.658 177.867 107.612 177.661C107.564 177.425 107.504 177.191 107.433 176.96C107.096 175.901 106.517 174.935 105.743 174.138C105.575 173.964 105.399 173.799 105.213 173.643C105.056 173.505 104.891 173.375 104.719 173.254C104.081 172.787 103.637 172.588 103.652 172.561Z" fill="#263238"/>
<path d="M150.232 99.5679H147.95V180.183H150.232V99.5679Z" fill="#E0E0E0"/>
<path d="M150.228 180.179C150.228 180.179 150.228 180.035 150.228 179.759C150.228 179.483 150.228 179.074 150.228 178.54C150.228 177.462 150.228 175.885 150.228 173.868C150.228 169.8 150.209 163.917 150.197 156.633C150.197 142.079 150.174 121.943 150.154 99.5836L150.256 99.6848H147.947L148.048 99.5836C148.048 138.941 148.013 171.883 147.97 180.195L147.947 180.176H149.66H150.224C150.224 180.176 150.049 180.176 149.672 180.176H147.947V180.152C147.9 171.84 147.869 138.883 147.869 99.5602V99.459H150.349V99.5602C150.349 121.947 150.318 142.114 150.31 156.687C150.31 163.96 150.287 169.835 150.279 173.896C150.279 175.92 150.279 177.489 150.279 178.568C150.279 179.093 150.279 179.498 150.279 179.775C150.279 180.051 150.228 180.179 150.228 180.179Z" fill="#263238"/>
<path d="M158.042 75.8342H139.187C138.34 75.8342 137.653 76.521 137.653 77.3682V100.105C137.653 100.952 138.34 101.639 139.187 101.639H158.042C158.889 101.639 159.576 100.952 159.576 100.105V77.3682C159.576 76.521 158.889 75.8342 158.042 75.8342Z" fill="white"/>
<path d="M158.042 101.639C158.042 101.639 158.124 101.639 158.279 101.608C158.581 101.557 158.86 101.415 159.08 101.203C159.3 100.99 159.451 100.716 159.514 100.417C159.545 100.178 159.554 99.9368 159.541 99.6964C159.541 99.4356 159.541 99.1591 159.541 98.8632C159.541 96.5078 159.541 93.1128 159.51 88.9197C159.51 86.8173 159.51 84.5202 159.51 82.0479C159.51 80.8137 159.51 79.5367 159.51 78.2247C159.51 77.8976 159.51 77.555 159.51 77.2397C159.482 76.92 159.348 76.6189 159.129 76.384C158.91 76.1491 158.62 75.994 158.303 75.9432C158.136 75.9247 157.968 75.9182 157.801 75.9237H157.252H139.19C139.004 75.9222 138.819 75.9574 138.646 76.0274C138.473 76.0974 138.315 76.2008 138.182 76.3317C138.049 76.4625 137.943 76.6183 137.87 76.7902C137.797 76.962 137.759 77.1465 137.758 77.3331C137.758 78.1118 137.758 78.8969 137.758 79.6886V84.2983C137.758 87.3195 137.758 90.2356 137.758 93.0116C137.758 94.4002 137.758 95.7525 137.758 97.0684V99.0151C137.758 99.3343 137.758 99.6536 137.758 99.9651C137.739 100.263 137.807 100.561 137.952 100.822C138.096 101.075 138.315 101.278 138.579 101.402C138.842 101.523 139.132 101.574 139.42 101.55H144.481L154.429 101.585H157.131H157.836C157.995 101.585 158.073 101.585 158.073 101.585H157.836H157.131L154.429 101.604L144.481 101.635H141.188H139.432C139.118 101.659 138.804 101.604 138.517 101.476C138.225 101.335 137.982 101.11 137.82 100.829C137.657 100.543 137.58 100.216 137.598 99.8872V98.9372C137.598 98.3026 137.598 97.6524 137.598 96.9905C137.598 95.6746 137.598 94.3223 137.598 92.9337C137.598 90.1577 137.598 87.2416 137.598 84.2204C137.598 82.7098 137.598 81.1732 137.598 79.6107C137.598 78.832 137.598 78.0534 137.598 77.2552C137.602 76.825 137.777 76.4138 138.083 76.1118C138.389 75.8097 138.803 75.6413 139.233 75.6434H157.294H157.812C157.989 75.6359 158.166 75.6437 158.342 75.6668C158.702 75.7212 159.033 75.897 159.28 76.1651C159.522 76.431 159.671 76.7686 159.704 77.1268C159.704 77.4733 159.704 77.7925 159.704 78.1273C159.704 79.4394 159.704 80.7164 159.704 81.9506C159.704 84.4229 159.704 86.7199 159.704 88.8223C159.704 93.0154 159.677 96.4104 159.669 98.7659C159.669 99.0618 159.669 99.3382 159.669 99.5991C159.681 99.8437 159.668 100.089 159.63 100.331C159.566 100.64 159.408 100.921 159.177 101.136C158.946 101.351 158.654 101.488 158.342 101.53C158.249 101.583 158.147 101.62 158.042 101.639Z" fill="#263238"/>
<path d="M154.421 81.0046H143.251C142.94 81.0046 142.687 81.2574 142.687 81.5692V96.0095C142.687 96.3213 142.94 96.5741 143.251 96.5741H154.421C154.733 96.5741 154.986 96.3213 154.986 96.0095V81.5692C154.986 81.2574 154.733 81.0046 154.421 81.0046Z" fill="#FF725E"/>
<path d="M142.909 84.0024H142.527C142.116 84.0024 141.783 84.3354 141.783 84.7461V87.7868C141.783 88.1975 142.116 88.5304 142.527 88.5304H142.909C143.319 88.5304 143.652 88.1975 143.652 87.7868V84.7461C143.652 84.3354 143.319 84.0024 142.909 84.0024Z" fill="#FF725E"/>
<path d="M155.208 84.0024H154.826C154.415 84.0024 154.083 84.3354 154.083 84.7461V87.7868C154.083 88.1975 154.415 88.5304 154.826 88.5304H155.208C155.618 88.5304 155.951 88.1975 155.951 87.7868V84.7461C155.951 84.3354 155.618 84.0024 155.208 84.0024Z" fill="#FF725E"/>
<path d="M153.526 84.0024H144.147V89.8697H153.526V84.0024Z" fill="white"/>
<path d="M152.296 93.6188C152.973 93.6188 153.522 93.0697 153.522 92.3924C153.522 91.7151 152.973 91.166 152.296 91.166C151.618 91.166 151.069 91.7151 151.069 92.3924C151.069 93.0697 151.618 93.6188 152.296 93.6188Z" fill="white"/>
<path d="M145.428 93.6188C146.105 93.6188 146.654 93.0697 146.654 92.3924C146.654 91.7151 146.105 91.166 145.428 91.166C144.75 91.166 144.201 91.7151 144.201 92.3924C144.201 93.0697 144.75 93.6188 145.428 93.6188Z" fill="white"/>
<path d="M143.528 94.8958H145.72V97.407C145.72 97.6382 145.628 97.8601 145.464 98.0236C145.301 98.1872 145.079 98.2791 144.847 98.2791H144.4C144.168 98.2791 143.947 98.1872 143.783 98.0236C143.619 97.8601 143.528 97.6382 143.528 97.407V94.8958Z" fill="#FF725E"/>
<path d="M151.626 94.8958H153.818V97.407C153.818 97.6382 153.726 97.8601 153.562 98.0236C153.399 98.1872 153.177 98.2791 152.946 98.2791H152.498C152.267 98.2791 152.045 98.1872 151.881 98.0236C151.718 97.8601 151.626 97.6382 151.626 97.407V94.8958Z" fill="#FF725E"/>
<path d="M151.202 82.2893H146.475V82.811H151.202V82.2893Z" fill="white"/>
</svg>
