<svg width="248" height="248" viewBox="0 0 248 248" fill="none" xmlns="http://www.w3.org/2000/svg">
<path d="M248 189.67H0V189.794H248V189.67Z" fill="#EBEBEB"/>
<path d="M156.572 193.048H143.944V193.172H156.572V193.048Z" fill="#EBEBEB"/>
<path d="M225.898 195.732H195.975V195.856H225.898V195.732Z" fill="#EBEBEB"/>
<path d="M141.256 193.108H110.34V193.232H141.256V193.108Z" fill="#EBEBEB"/>
<path d="M90.2918 196.818H83.824V196.942H90.2918V196.818Z" fill="#EBEBEB"/>
<path d="M126.029 196.818H96.5762V196.942H126.029V196.818Z" fill="#EBEBEB"/>
<path d="M45.0912 194.725H26.02V194.849H45.0912V194.725Z" fill="#EBEBEB"/>
<path d="M117.552 167.549H21.7793C21.0291 167.548 20.31 167.249 19.7799 166.718C19.2499 166.187 18.9521 165.467 18.9521 164.717V30.0876C18.9587 29.3417 19.2593 28.6284 19.7886 28.1027C20.318 27.5771 21.0333 27.2816 21.7793 27.2803H117.552C118.303 27.2803 119.023 27.5787 119.555 28.1098C120.086 28.6409 120.384 29.3613 120.384 30.1124V164.717C120.384 165.468 120.086 166.188 119.555 166.72C119.023 167.251 118.303 167.549 117.552 167.549ZM21.7793 27.3795C21.062 27.3808 20.3744 27.6667 19.8676 28.1744C19.3608 28.6822 19.0761 29.3702 19.0761 30.0876V164.717C19.0761 165.434 19.3608 166.122 19.8676 166.63C20.3744 167.138 21.062 167.424 21.7793 167.425H117.552C118.27 167.424 118.958 167.138 119.465 166.63C119.973 166.123 120.259 165.435 120.26 164.717V30.0876C120.259 29.3698 119.973 28.6817 119.465 28.1741C118.958 27.6665 118.27 27.3808 117.552 27.3795H21.7793Z" fill="#EBEBEB"/>
<path d="M224.842 167.549H129.064C128.313 167.548 127.594 167.249 127.063 166.718C126.532 166.187 126.233 165.468 126.232 164.717V30.0876C126.24 29.3412 126.541 28.6279 127.072 28.1024C127.602 27.5769 128.318 27.2815 129.064 27.2803H224.842C225.587 27.2829 226.301 27.579 226.829 28.1045C227.358 28.63 227.657 29.3425 227.664 30.0876V164.717C227.664 165.466 227.367 166.185 226.838 166.716C226.309 167.247 225.591 167.546 224.842 167.549ZM129.064 27.3795C128.346 27.3808 127.658 27.6665 127.151 28.1741C126.643 28.6817 126.357 29.3698 126.356 30.0876V164.717C126.357 165.435 126.643 166.123 127.151 166.63C127.658 167.138 128.346 167.424 129.064 167.425H224.842C225.56 167.424 226.248 167.138 226.755 166.63C227.263 166.123 227.549 165.435 227.55 164.717V30.0876C227.549 29.3698 227.263 28.6817 226.755 28.1741C226.248 27.6665 225.56 27.3808 224.842 27.3795H129.064Z" fill="#EBEBEB"/>
<path d="M97.1962 146.652H64.2618L62.2629 123.588H95.1973L97.1962 146.652Z" fill="#E6E6E6"/>
<path d="M98.9023 146.652H65.9679L63.969 123.588H96.9034L98.9023 146.652Z" fill="#F0F0F0"/>
<path d="M70.4717 141.697L69.3706 128.539H92.3999L93.501 141.697H70.4717Z" fill="white"/>
<path d="M104.601 146.652H100.738V189.67H104.601V146.652Z" fill="#E6E6E6"/>
<path d="M105.822 146.652H103.138V189.67H105.822V146.652Z" fill="#F0F0F0"/>
<path d="M68.4182 151.399H105.822V146.653H68.4182V151.399Z" fill="#F0F0F0"/>
<path d="M69.7376 151.399H65.8738V189.671H69.7376V151.399Z" fill="#E6E6E6"/>
<path d="M70.9578 151.399H68.2744V189.671H70.9578V151.399Z" fill="#F0F0F0"/>
<path d="M42.2344 151.399H38.3706V189.671H42.2344V151.399Z" fill="#E6E6E6"/>
<path d="M43.4546 151.399H40.7712V189.671H43.4546V151.399Z" fill="#F0F0F0"/>
<path d="M80.1487 151.399H76.2849V189.671H80.1487V151.399Z" fill="#E6E6E6"/>
<path d="M81.3638 151.399H78.6804V189.671H81.3638V151.399Z" fill="#F0F0F0"/>
<path d="M68.4183 146.652H38.3706V151.399H68.4183V146.652Z" fill="#E6E6E6"/>
<path d="M180.465 39.3877H64.2371V104.096H180.465V39.3877Z" fill="#E0E0E0"/>
<path d="M186.848 39.3877H64.8223V104.096H186.848V39.3877Z" fill="#F5F5F5"/>
<path d="M184.854 102.102V41.3816L66.8162 41.3816V102.102H184.854Z" fill="white"/>
<path d="M114.611 102.102L136.896 41.3816H100.118L77.8323 102.102H114.611Z" fill="#F5F5F5"/>
<path d="M150.01 102.102L172.295 41.3816H144.549L122.264 102.102H150.01Z" fill="#F5F5F5"/>
<path d="M217.302 127.869H207.422V189.671H217.302V127.869Z" fill="#E6E6E6"/>
<path d="M214.704 189.671H217.303V184.914H211.98L214.704 189.671Z" fill="#FAFAFA"/>
<path d="M126.207 127.869H116.327V189.671H126.207V127.869Z" fill="#E6E6E6"/>
<path d="M217.302 127.869H123.94V188.386H217.302V127.869Z" fill="#FAFAFA"/>
<path d="M215.537 147.396H125.711V130.304H215.537V147.396ZM126.207 146.9H215.041V130.8H126.207V146.9Z" fill="#E6E6E6"/>
<path d="M199.724 138.602H143.265C140.646 138.602 138.121 136.489 136.321 132.799L136.152 132.447H206.832L206.663 132.799C204.848 136.489 202.368 138.602 199.724 138.602ZM136.966 132.928C138.642 136.216 140.934 138.091 143.265 138.091H199.724C202.066 138.091 204.347 136.216 206.024 132.928H136.966Z" fill="#E6E6E6"/>
<path d="M126.539 189.671H123.94V184.914H129.262L126.539 189.671Z" fill="#FAFAFA"/>
<path d="M215.537 166.656H125.711V149.584H215.537V166.656ZM126.207 166.16H215.041V150.08H126.207V166.16Z" fill="#E6E6E6"/>
<path d="M199.724 157.882H143.265C140.646 157.882 138.121 155.764 136.321 152.079L136.152 151.722H206.832L206.663 152.079C204.848 155.744 202.368 157.882 199.724 157.882ZM136.966 152.218C138.642 155.506 140.934 157.386 143.265 157.386H199.724C202.066 157.386 204.347 155.506 206.024 152.218H136.966Z" fill="#E6E6E6"/>
<path d="M215.537 185.951H125.711V168.858H215.537V185.951ZM126.207 185.455H215.041V169.354H126.207V185.455Z" fill="#E6E6E6"/>
<path d="M199.724 177.156H143.265C140.646 177.156 138.121 175.043 136.321 171.358L136.152 171.001H206.832L206.663 171.358C204.848 175.043 202.368 177.156 199.724 177.156ZM136.966 171.497C138.642 174.785 140.934 176.66 143.265 176.66H199.724C202.066 176.66 204.347 174.785 206.024 171.497H136.966Z" fill="#E6E6E6"/>
<path d="M60.0061 136.043V137.243H59.2423L58.6074 146.652H49.2627L48.6328 137.243H47.864V136.043H60.0061Z" fill="#E6E6E6"/>
<path d="M56.931 112.696C56.1671 107.092 48.6031 105.494 39.0055 105.286C29.8742 105.093 26.9478 101.864 26.9478 101.864C26.9478 101.864 26.9775 114.943 40.1364 119.685C52.6306 124.179 57.6998 118.311 56.931 112.696Z" fill="#E6E6E6"/>
<path d="M52.2684 125.399C52.4271 123.098 56.1074 118.862 64.961 120.786C71.3594 122.18 73.7402 118.862 73.7402 118.862C73.7402 118.862 73.145 128.226 63.5226 131.039C54.3814 133.712 51.9857 129.456 52.2684 125.399Z" fill="#E6E6E6"/>
<path d="M54.2872 139.575C54.3371 139.575 54.3864 139.565 54.4318 139.544C54.4773 139.524 54.5176 139.493 54.5501 139.456C55.19 138.697 54.6642 136.881 53.9401 134.367C53.0076 131.143 51.8469 127.125 52.829 124.213C53.3734 122.676 54.0094 121.172 54.7336 119.71C56.1224 116.773 57.3228 114.254 56.3209 111.585C56.3052 111.543 56.2813 111.504 56.2506 111.471C56.2198 111.438 56.1827 111.411 56.1416 111.392C56.1004 111.373 56.0559 111.363 56.0107 111.362C55.9655 111.36 55.9205 111.368 55.8782 111.384C55.8359 111.4 55.7972 111.424 55.7643 111.455C55.7315 111.486 55.7051 111.524 55.6868 111.565C55.6685 111.606 55.6585 111.651 55.6575 111.696C55.6565 111.741 55.6645 111.786 55.681 111.828C56.5788 114.204 55.4925 116.506 54.1136 119.422C53.3802 120.907 52.7343 122.434 52.1792 123.995C51.1327 127.11 52.3231 131.242 53.2804 134.555C53.8458 136.539 54.4311 138.523 54.0293 139.019C53.9974 139.053 53.973 139.094 53.9576 139.138C53.9423 139.182 53.9362 139.229 53.94 139.276C53.9437 139.322 53.9571 139.368 53.9793 139.409C54.0015 139.45 54.0321 139.486 54.069 139.515C54.1324 139.56 54.2097 139.581 54.2872 139.575Z" fill="#E6E6E6"/>
<path d="M124 212.07C177.113 212.07 220.169 209.556 220.169 206.455C220.169 203.354 177.113 200.84 124 200.84C70.8871 200.84 27.8306 203.354 27.8306 206.455C27.8306 209.556 70.8871 212.07 124 212.07Z" fill="#F5F5F5"/>
<path d="M123.98 179.081H53.548L49.6941 65.8091H120.126L123.98 179.081Z" fill="#ED7471"/>
<path d="M127.497 175.564H57.0647L53.2058 62.2925H123.638L127.497 175.564Z" fill="#ED7471"/>
<path opacity="0.3" d="M127.497 175.564H57.0647L53.2058 62.2925H123.638L127.497 175.564Z" fill="white"/>
<path d="M103.898 108.904C111.44 101.232 111.119 88.6883 103.182 80.8859C95.2446 73.0834 82.6969 72.9772 75.1557 80.6486C67.6144 88.3199 67.9352 100.864 75.8723 108.666C83.8093 116.469 96.357 116.575 103.898 108.904Z" fill="#ED7471"/>
<path d="M105.881 94.7805C105.983 97.4796 105.394 100.16 104.17 102.568C102.849 105.163 100.832 107.338 98.3434 108.85C95.8553 110.362 92.995 111.151 90.0835 111.129C87.1035 111.113 84.1802 110.313 81.6068 108.811C79.0334 107.308 76.9004 105.155 75.4217 102.568C74.043 100.197 73.2728 97.5215 73.1798 94.7805C73.0883 92.6552 73.4299 90.5335 74.1837 88.5442C74.9376 86.555 76.088 84.7398 77.5651 83.2089C79.0421 81.678 80.815 80.4634 82.776 79.6389C84.737 78.8143 86.8452 78.3971 88.9725 78.4125C93.3547 78.4435 97.5567 80.1615 100.705 83.2096C103.854 86.2577 105.708 90.4015 105.881 94.7805Z" fill="white"/>
<path opacity="0.6" d="M104.16 102.568C102.839 105.163 100.821 107.338 98.3333 108.85C95.8452 110.363 92.9849 111.152 90.0734 111.129C87.0934 111.113 84.1701 110.313 81.5967 108.811C79.0233 107.308 76.8903 105.155 75.4116 102.568C79.6064 99.7079 84.57 98.1877 89.6468 98.208C94.8055 98.2191 99.849 99.7342 104.16 102.568Z" fill="#ED7471"/>
<path opacity="0.6" d="M94.6226 94.3726C97.3956 91.5518 97.2776 86.9392 94.3591 84.0702C91.4406 81.2012 86.8267 81.1621 84.0537 83.983C81.2807 86.8038 81.3986 91.4164 84.3172 94.2854C87.2357 97.1544 91.8496 97.1935 94.6226 94.3726Z" fill="#ED7471"/>
<path d="M113.346 134.545H68.418L68.1155 125.617H113.043L113.346 134.545Z" fill="white"/>
<path d="M113.891 150.501H68.9588L68.6562 141.573H113.589L113.891 150.501Z" fill="white"/>
<path d="M96.5512 142.803L85.7235 144.291C85.6202 144.303 85.5204 144.336 85.4305 144.388C85.3405 144.441 85.2624 144.511 85.2009 144.595C85.1394 144.679 85.0959 144.774 85.0732 144.876C85.0504 144.977 85.0489 145.082 85.0688 145.184L86.4923 152.441C86.5389 152.654 86.6634 152.842 86.8415 152.967C87.0196 153.093 87.2383 153.148 87.4545 153.12L98.2822 151.632C98.3853 151.619 98.4846 151.585 98.574 151.532C98.6633 151.479 98.7409 151.408 98.8018 151.324C98.8627 151.24 98.9057 151.144 98.9281 151.043C98.9505 150.941 98.9518 150.836 98.932 150.735L97.5134 143.478C97.4668 143.265 97.342 143.078 97.1638 142.953C96.9856 142.828 96.7669 142.775 96.5512 142.803ZM93.4412 150.154L91.4572 150.417L91.2638 148.076C91.0594 147.988 90.8792 147.851 90.7385 147.679C90.5978 147.506 90.5007 147.302 90.4553 147.084C90.4189 146.915 90.4183 146.74 90.4536 146.571C90.4889 146.402 90.5593 146.242 90.6603 146.102C90.7613 145.962 90.8906 145.844 91.0398 145.757C91.189 145.67 91.3549 145.615 91.5267 145.596C91.879 145.551 92.2355 145.639 92.5257 145.844C92.8159 146.049 93.0187 146.355 93.094 146.702C93.137 146.912 93.1239 147.129 93.056 147.332C92.988 147.535 92.8677 147.716 92.7072 147.858L93.4412 150.154Z" fill="#ED7471"/>
<path d="M95.4798 142.411C95.2884 142.436 95.0948 142.388 94.9369 142.277C94.7791 142.166 94.6685 142 94.6267 141.811L94.4878 141.102C94.2896 140.134 93.7471 139.271 92.9608 138.672C92.1746 138.074 91.1981 137.781 90.2123 137.848C89.7149 137.876 89.2294 138.012 88.7888 138.244C88.3482 138.477 87.9628 138.802 87.6589 139.196C87.3549 139.591 87.1394 140.047 87.0272 140.532C86.9149 141.018 86.9084 141.521 87.0081 142.01L87.1669 142.828C87.1854 142.919 87.1847 143.012 87.1649 143.103C87.1452 143.193 87.1067 143.278 87.0521 143.353C86.9975 143.428 86.9279 143.49 86.8477 143.536C86.7675 143.583 86.6786 143.612 86.5866 143.622C86.3948 143.648 86.2 143.601 86.0416 143.49C85.8832 143.378 85.7731 143.211 85.7334 143.021L85.5995 142.332C85.4633 141.688 85.4588 141.022 85.5862 140.376C85.7137 139.73 85.9704 139.116 86.3411 138.572C86.7117 138.028 87.1886 137.564 87.743 137.208C88.2975 136.853 88.9181 136.613 89.5675 136.504C90.9756 136.268 92.4207 136.582 93.6029 137.383C94.785 138.184 95.6135 139.409 95.9163 140.804L96.075 141.618C96.0935 141.71 96.0924 141.804 96.0718 141.896C96.0511 141.987 96.0114 142.073 95.9552 142.148C95.899 142.223 95.8276 142.285 95.7457 142.33C95.6638 142.376 95.5732 142.403 95.4798 142.411Z" fill="#ED7471"/>
<path d="M106.476 163.006H77.2271L77.0337 157.192H106.278L106.476 163.006Z" fill="#ED7471"/>
<path d="M92.3649 130.081C92.3737 130.293 92.3393 130.505 92.2638 130.703C92.1883 130.901 92.0734 131.082 91.9259 131.235C91.7784 131.387 91.6015 131.509 91.4058 131.591C91.2102 131.673 90.9999 131.714 90.7877 131.713C90.3503 131.71 89.931 131.538 89.6162 131.235C89.3015 130.931 89.1154 130.518 89.0963 130.081C89.0876 129.869 89.122 129.657 89.1974 129.459C89.2729 129.261 89.3879 129.08 89.5354 128.927C89.6828 128.775 89.8598 128.654 90.0554 128.571C90.2511 128.489 90.4614 128.448 90.6736 128.449C91.1113 128.451 91.5313 128.622 91.8463 128.926C92.1613 129.23 92.3471 129.644 92.3649 130.081Z" fill="#263238"/>
<path d="M85.3119 130.081C85.3213 130.293 85.2874 130.505 85.2122 130.704C85.137 130.903 85.0221 131.084 84.8744 131.236C84.7268 131.389 84.5496 131.51 84.3536 131.592C84.1576 131.674 83.947 131.715 83.7346 131.713C83.2978 131.709 82.879 131.538 82.565 131.234C82.2511 130.931 82.066 130.518 82.0482 130.081C82.0395 129.869 82.0739 129.657 82.1494 129.459C82.2248 129.261 82.3398 129.08 82.4873 128.927C82.6347 128.775 82.8117 128.654 83.0073 128.571C83.203 128.489 83.4133 128.448 83.6255 128.449C84.0627 128.452 84.4822 128.622 84.7964 128.927C85.1106 129.231 85.2953 129.644 85.3119 130.081Z" fill="#263238"/>
<path d="M78.3033 130.081C78.3121 130.293 78.2777 130.505 78.2022 130.703C78.1267 130.901 78.0118 131.082 77.8643 131.235C77.7168 131.387 77.5399 131.509 77.3442 131.591C77.1486 131.673 76.9383 131.714 76.7261 131.713C76.2888 131.711 75.8694 131.54 75.5552 131.236C75.241 130.932 75.0563 130.518 75.0397 130.081C75.0309 129.869 75.0653 129.657 75.1408 129.459C75.2163 129.261 75.3312 129.08 75.4787 128.927C75.6262 128.775 75.8031 128.654 75.9988 128.571C76.1944 128.489 76.4047 128.448 76.6169 128.449C77.0542 128.452 77.4736 128.622 77.7878 128.927C78.1021 129.231 78.2867 129.644 78.3033 130.081Z" fill="#263238"/>
<path d="M99.3933 130.081C99.402 130.293 99.3676 130.505 99.2922 130.703C99.2167 130.901 99.1017 131.082 98.9542 131.235C98.8068 131.387 98.6298 131.508 98.4342 131.591C98.2385 131.673 98.0282 131.714 97.816 131.713C97.3788 131.711 96.9593 131.54 96.6451 131.236C96.3309 130.931 96.1462 130.518 96.1296 130.081C96.1222 129.87 96.1578 129.659 96.2343 129.462C96.3107 129.264 96.4264 129.085 96.5744 128.934C96.7223 128.782 96.8994 128.663 97.0949 128.582C97.2905 128.501 97.5003 128.461 97.7119 128.464C98.1458 128.467 98.5619 128.637 98.8746 128.938C99.1874 129.238 99.373 129.648 99.3933 130.081Z" fill="#263238"/>
<path d="M106.422 130.081C106.431 130.293 106.397 130.505 106.322 130.704C106.247 130.903 106.132 131.084 105.984 131.236C105.837 131.389 105.659 131.51 105.463 131.592C105.267 131.674 105.057 131.715 104.844 131.713C104.408 131.709 103.989 131.538 103.675 131.234C103.361 130.931 103.176 130.518 103.158 130.081C103.149 129.869 103.184 129.657 103.259 129.459C103.335 129.261 103.45 129.08 103.597 128.927C103.745 128.775 103.922 128.654 104.117 128.571C104.313 128.489 104.523 128.448 104.735 128.449C105.173 128.452 105.592 128.622 105.906 128.927C106.22 129.231 106.405 129.644 106.422 130.081Z" fill="#263238"/>
<path d="M165.619 86.4429C166.279 87.5043 166.83 88.5161 167.395 89.5726C167.96 90.6291 168.471 91.6906 168.972 92.7768C169.994 94.9763 170.84 97.2535 171.502 99.5869C171.591 99.8795 171.656 100.192 171.73 100.495L171.839 100.956L171.894 101.184L171.958 101.561C172.07 102.416 172.018 103.285 171.804 104.12C171.462 105.418 170.941 106.661 170.257 107.816C169.033 109.913 167.553 111.851 165.852 113.584L163.764 112.007C164.812 110.08 165.745 108.092 166.557 106.055C166.918 105.157 167.173 104.22 167.316 103.262C167.361 102.97 167.348 102.671 167.276 102.384L167.078 101.779C166.998 101.531 166.924 101.283 166.83 101.03C166.075 98.984 165.202 96.9834 164.216 95.0386C163.224 93.0546 162.157 91.0705 161.091 89.1758L165.619 86.4429Z" fill="#FF8B7B"/>
<path d="M164.295 111.317L162.013 112.522L164.632 115.588C164.632 115.588 166.269 114.482 166.343 112.795L164.295 111.317Z" fill="#FF8B7B"/>
<path d="M158.953 114.412L161.756 116.639L164.632 115.588L162.013 112.522L158.953 114.412Z" fill="#FF8B7B"/>
<path d="M149.37 70.2138C149.316 70.4916 149.122 70.685 148.944 70.6503C148.765 70.6156 148.661 70.3576 148.716 70.0848C148.77 69.812 148.964 69.5888 149.147 69.6484C149.331 69.7079 149.425 69.936 149.37 70.2138Z" fill="#263238"/>
<path d="M149.147 70.6899C148.648 71.4668 148.044 72.1712 147.352 72.7831C147.515 72.9524 147.713 73.0844 147.932 73.17C148.152 73.2556 148.387 73.2928 148.622 73.2791L149.147 70.6899Z" fill="#FF5652"/>
<path d="M148.254 80.4212V77.1675L152.56 77.6635C152.56 77.6635 152.49 80.4609 150.08 81.2843L148.254 80.4212Z" fill="#FF8B7B"/>
<path d="M149.495 74.8264L152.525 75.6994L152.58 77.6883L148.274 77.1675L149.495 74.8264Z" fill="#FF8B7B"/>
<path opacity="0.2" d="M152.525 75.6994L149.494 74.8264L148.904 75.9573C148.936 76.8484 149.215 77.7131 149.709 78.4556C150.202 79.198 150.892 79.7891 151.702 80.1634C152.222 79.4361 152.527 78.5763 152.579 77.6834L152.525 75.6994Z" fill="black"/>
<path d="M150.69 68.8894C150.722 68.8886 150.753 68.8787 150.779 68.8611C150.805 68.8434 150.826 68.8186 150.839 68.7896C150.852 68.7605 150.857 68.7284 150.852 68.6969C150.848 68.6655 150.834 68.6359 150.814 68.6117C150.64 68.4149 150.421 68.2627 150.176 68.1678C149.931 68.0729 149.667 68.038 149.405 68.0661C149.362 68.0733 149.324 68.0973 149.299 68.1326C149.274 68.1679 149.264 68.2118 149.271 68.2545C149.279 68.2976 149.302 68.3361 149.338 68.362C149.373 68.3879 149.416 68.3992 149.46 68.3934C149.667 68.3731 149.876 68.4026 150.069 68.4794C150.262 68.5562 150.434 68.678 150.571 68.8349C150.586 68.8514 150.604 68.8648 150.625 68.8742C150.645 68.8835 150.667 68.8887 150.69 68.8894Z" fill="#263238"/>
<path d="M157.029 75.2332C156.533 77.7876 156.225 81.324 158.021 83.0253C158.021 83.0253 157.326 85.6144 152.565 85.6144C147.352 85.6144 150.06 83.3428 150.06 83.3428C152.227 82.6682 152.208 80.2031 151.712 78.2191L157.029 75.2332Z" fill="#FF8B7B"/>
<path d="M158.988 84.7316C159.454 84.0769 159.434 81.9987 158.938 81.6316C158.14 81.0414 154.712 80.9025 150.105 81.964C150.601 83.9777 149.534 85.0292 149.534 85.0292L158.988 84.7316Z" fill="#ED7471"/>
<path d="M174.493 202.487C174.351 202.537 174.201 202.558 174.051 202.549C173.901 202.541 173.755 202.503 173.62 202.437C173.569 202.39 173.533 202.327 173.519 202.259C173.505 202.191 173.512 202.119 173.54 202.055C173.556 202.002 173.583 201.952 173.62 201.91C173.657 201.868 173.703 201.835 173.754 201.812C174.225 201.584 175.306 202.026 175.356 202.045C175.371 202.051 175.383 202.062 175.392 202.075C175.401 202.088 175.406 202.104 175.405 202.12C175.405 202.136 175.401 202.151 175.393 202.165C175.385 202.179 175.374 202.191 175.361 202.199C175.081 202.322 174.79 202.418 174.493 202.487ZM173.922 201.926C173.89 201.934 173.858 201.946 173.828 201.961C173.797 201.972 173.769 201.991 173.747 202.015C173.724 202.039 173.708 202.068 173.699 202.1C173.654 202.249 173.699 202.298 173.729 202.313C173.917 202.472 174.612 202.313 175.103 202.13C174.729 201.975 174.326 201.906 173.922 201.926Z" fill="#ED7471"/>
<path d="M175.341 202.204H175.301C174.905 202.09 174.061 201.49 174.052 201.098C174.051 201.036 174.072 200.975 174.111 200.927C174.15 200.878 174.204 200.844 174.265 200.83C174.324 200.808 174.387 200.8 174.449 200.805C174.512 200.81 174.572 200.829 174.627 200.86C175.093 201.098 175.391 202.06 175.401 202.105C175.408 202.117 175.411 202.131 175.411 202.145C175.411 202.159 175.408 202.172 175.401 202.184C175.393 202.192 175.384 202.198 175.373 202.201C175.363 202.205 175.352 202.206 175.341 202.204ZM174.349 200.969H174.309C174.21 201.004 174.21 201.053 174.21 201.078C174.21 201.311 174.776 201.783 175.202 201.971C175.098 201.693 174.87 201.143 174.567 200.979C174.5 200.949 174.424 200.945 174.354 200.969H174.349Z" fill="#ED7471"/>
<path d="M148.731 203.072C148.284 203.072 147.853 203.007 147.709 202.809C147.671 202.756 147.651 202.693 147.651 202.628C147.651 202.563 147.671 202.5 147.709 202.447C147.737 202.399 147.775 202.356 147.82 202.323C147.866 202.29 147.917 202.266 147.972 202.254C148.552 202.095 149.772 202.789 149.822 202.819C149.837 202.826 149.849 202.839 149.857 202.854C149.864 202.869 149.866 202.887 149.862 202.903C149.86 202.92 149.852 202.936 149.841 202.949C149.829 202.961 149.814 202.97 149.797 202.973C149.445 203.037 149.088 203.07 148.731 203.072ZM148.18 202.392C148.128 202.384 148.074 202.384 148.021 202.392C147.988 202.399 147.956 202.413 147.928 202.433C147.9 202.452 147.876 202.477 147.858 202.506C147.798 202.611 147.823 202.66 147.858 202.69C148.021 202.918 148.899 202.923 149.549 202.829C149.125 202.597 148.66 202.449 148.18 202.392Z" fill="#ED7471"/>
<path d="M149.792 202.973H149.757C149.336 202.785 148.503 202.031 148.567 201.634C148.567 201.54 148.646 201.426 148.875 201.406C148.956 201.396 149.039 201.404 149.117 201.428C149.196 201.452 149.268 201.491 149.331 201.545C149.649 201.925 149.84 202.395 149.876 202.889C149.876 202.903 149.873 202.917 149.867 202.93C149.861 202.943 149.852 202.954 149.842 202.963C149.826 202.971 149.809 202.975 149.792 202.973ZM148.939 201.56H148.889C148.741 201.56 148.731 201.629 148.731 201.649C148.691 201.887 149.256 202.482 149.688 202.74C149.65 202.342 149.489 201.966 149.227 201.664C149.145 201.594 149.041 201.557 148.934 201.56H148.939Z" fill="#ED7471"/>
<path d="M153.621 202.893H150.134L149.787 194.813H153.274L153.621 202.893Z" fill="#FF8B7B"/>
<path d="M179.23 201.277L175.822 202.016L172.395 194.491L175.807 193.752L179.23 201.277Z" fill="#FF8B7B"/>
<path d="M175.49 201.673L179.324 200.845C179.391 200.831 179.461 200.84 179.522 200.87C179.583 200.901 179.632 200.951 179.661 201.014L180.99 203.9C181.026 203.97 181.044 204.048 181.044 204.126C181.044 204.204 181.025 204.281 180.989 204.351C180.953 204.421 180.901 204.481 180.838 204.527C180.774 204.573 180.701 204.603 180.623 204.615C179.284 204.877 178.615 204.942 176.933 205.304C175.896 205.532 173.555 206.103 172.122 206.41C170.688 206.718 170.197 205.344 170.758 205.091C173.263 203.945 174.304 202.938 174.984 202.001C175.107 201.833 175.287 201.717 175.49 201.673Z" fill="#263238"/>
<path d="M150.159 202.487H153.968C154.038 202.487 154.105 202.511 154.159 202.554C154.213 202.597 154.25 202.658 154.266 202.725L154.955 205.825C154.976 205.9 154.978 205.978 154.962 206.054C154.947 206.13 154.913 206.202 154.865 206.263C154.817 206.323 154.755 206.372 154.685 206.404C154.614 206.437 154.537 206.453 154.459 206.45C153.086 206.425 151.102 206.346 149.375 206.346C147.352 206.346 145.611 206.455 143.24 206.455C141.807 206.455 141.41 205.006 142.01 204.873C144.738 204.277 146.97 204.213 149.326 202.76C149.573 202.594 149.862 202.5 150.159 202.487Z" fill="#263238"/>
<path d="M164.26 83.8237C167.529 84.5727 170.212 92.9204 170.212 92.9204L163.68 97.9151C161.984 96.1022 160.788 93.8805 160.208 91.4671C159.052 87.0924 160.917 83.05 164.26 83.8237Z" fill="#ED7471"/>
<path opacity="0.4" d="M164.26 83.8237C167.529 84.5727 170.212 92.9204 170.212 92.9204L163.68 97.9151C161.984 96.1022 160.788 93.8805 160.208 91.4671C159.052 87.0924 160.917 83.05 164.26 83.8237Z" fill="black"/>
<path d="M147.064 93.7786C146.251 94.6565 145.437 95.4402 144.584 96.2586C144.163 96.6554 143.736 97.0522 143.299 97.4341L142.64 98.0144L142.476 98.1582L142.193 98.3864C141.902 98.6189 141.58 98.8092 141.236 98.9518C140.853 99.1143 140.442 99.1987 140.026 99.1998C139.67 99.2013 139.318 99.1392 138.984 99.0163C138.614 98.8755 138.277 98.6612 137.992 98.3864C137.629 98.0313 137.363 97.589 137.219 97.1018C137.143 96.8615 137.095 96.6137 137.075 96.3627C137.049 96.069 137.049 95.7736 137.075 95.4798C137.099 95.2418 137.129 95.0334 137.169 94.84C137.305 94.1637 137.497 93.5 137.744 92.856C137.967 92.2438 138.224 91.6444 138.513 91.0605C138.831 90.4306 139.133 89.9693 139.436 89.4435C140.665 87.4304 142.067 85.5284 143.627 83.7594C145.171 82.0007 146.873 80.387 148.711 78.9382L150.536 80.8181C149.256 82.5342 147.997 84.3744 146.831 86.1848C145.671 87.9849 144.611 89.8478 143.657 91.7648C143.443 92.231 143.161 92.7568 143.027 93.1338C142.849 93.5717 142.695 94.0187 142.565 94.473C142.44 94.882 142.346 95.2998 142.283 95.7229C142.279 95.789 142.279 95.8552 142.283 95.9213C142.283 95.961 142.283 95.9808 142.283 95.8766C142.274 95.7653 142.253 95.6554 142.218 95.5493C142.111 95.1976 141.914 94.8798 141.648 94.6267C141.411 94.4088 141.132 94.2402 140.829 94.1307C140.563 94.0298 140.281 93.9778 139.996 93.977C139.722 93.9736 139.451 94.026 139.198 94.1307C139.112 94.1657 139.029 94.2072 138.95 94.2547L139.138 94.0811L139.738 93.5355L140.924 92.4245C141.707 91.6854 142.496 90.8968 143.24 90.1627L147.064 93.7786Z" fill="#FF8B7B"/>
<path opacity="0.2" d="M161.458 89.9546C163.234 91.7104 163.814 94.9146 163.938 97.6922L163.65 97.9154C161.955 96.1025 160.759 93.8808 160.178 91.4674C160.114 91.2095 160.054 90.9714 160.01 90.6887L161.458 89.9546Z" fill="black"/>
<path d="M143.597 87.2959C142.883 91.0655 142.436 98.808 144.505 114.134H163.184C163.313 111.272 161.512 97.2952 164.275 83.7991C162.211 83.4027 160.124 83.1393 158.026 83.0104C155.382 82.8588 152.733 82.8588 150.09 83.0104C149.217 83.0898 148.354 83.2187 147.61 83.3527C146.62 83.5262 145.707 83.9962 144.99 84.7003C144.274 85.4044 143.788 86.3096 143.597 87.2959Z" fill="#ED7471"/>
<path opacity="0.4" d="M143.597 87.2959C142.883 91.0655 142.436 98.808 144.505 114.134H163.184C163.313 111.272 161.512 97.2952 164.275 83.7991C162.211 83.4027 160.124 83.1393 158.026 83.0104C155.382 82.8588 152.733 82.8588 150.09 83.0104C149.217 83.0898 148.354 83.2187 147.61 83.3527C146.62 83.5262 145.707 83.9962 144.99 84.7003C144.274 85.4044 143.788 86.3096 143.597 87.2959Z" fill="black"/>
<path opacity="0.2" d="M146.454 92.8856L143.081 92.0771C142.977 94.1207 142.967 96.6503 143.116 99.78C144.668 98.0143 146.652 95.2565 146.454 92.8856Z" fill="black"/>
<path opacity="0.2" d="M149.787 194.813L149.966 198.98H153.458L153.279 194.813H149.787Z" fill="black"/>
<path opacity="0.2" d="M175.807 193.752L172.395 194.491L174.161 198.37L177.573 197.631L175.807 193.752Z" fill="black"/>
<path d="M158.685 71.5034C157.792 74.8465 157.435 76.8503 155.372 78.2391C152.272 80.3521 148.403 77.9316 148.304 74.4001C148.195 71.2108 149.678 66.2756 153.264 65.601C154.052 65.4531 154.865 65.5084 155.626 65.7615C156.386 66.0146 157.07 66.4573 157.613 67.0478C158.155 67.6383 158.538 68.3572 158.726 69.1368C158.913 69.9163 158.899 70.7308 158.685 71.5034Z" fill="#FF8B7B"/>
<path d="M150.859 71.6272C150.69 71.1808 149.921 67.7237 150.645 66.8259C151.369 65.9282 159.628 66.5779 160.848 67.7782C162.877 69.7622 161.468 71.5478 159.251 73.8443C157.584 75.5704 157.52 77.5147 156.677 77.8123C155.189 78.3083 152.917 77.8421 152.461 76.2698C152.004 74.6974 150.859 71.6272 150.859 71.6272Z" fill="#263238"/>
<path d="M159.846 63.845C156.929 62.605 151.459 63.9789 148.502 63.2646C148.465 64.3639 148.826 65.4396 149.52 66.293C150.214 67.1463 151.193 67.7198 152.277 67.9072C154.729 68.3745 157.221 68.6054 159.717 68.5966C162.961 68.4478 162.326 64.9014 159.846 63.845Z" fill="#263238"/>
<path d="M160.302 67.8825C161.368 67.9873 162.441 67.7824 163.392 67.2922C163.938 68.6116 160.937 68.9737 160.302 67.8825Z" fill="#263238"/>
<path d="M152.446 71.7661C152.379 72.6263 152.03 73.4404 151.454 74.0825C150.69 74.9207 149.896 74.3949 149.762 73.3781C149.643 72.4556 149.891 70.8981 150.824 70.4517C151.756 70.0053 152.51 70.7295 152.446 71.7661Z" fill="#FF8B7B"/>
<path d="M151.126 114.149C151.126 114.149 155.094 140.809 157.262 150.799C159.638 161.736 172.405 197.919 172.405 197.919L178.649 196.565C178.649 196.565 169.721 167.073 167.737 151.781C166.2 140.036 163.179 114.139 163.179 114.139L151.126 114.149Z" fill="#ED7471"/>
<path d="M170.907 195.841C170.882 195.841 172.072 198.102 172.072 198.102L179.096 196.58L178.506 194.467L170.907 195.841Z" fill="#263238"/>
<path opacity="0.3" d="M153.631 123.648C158.209 124.546 157.723 141.618 157.172 150.402C155.853 144.192 153.919 132.248 152.599 123.772C152.919 123.614 153.283 123.57 153.631 123.648Z" fill="black"/>
<path d="M144.505 114.149C144.505 114.149 144.009 140.234 144.406 150.853C144.802 161.919 148.666 198.152 148.666 198.152H154.579C154.579 198.152 154.792 162.564 155.075 151.696C155.362 139.852 156.791 114.129 156.791 114.129L144.505 114.149Z" fill="#ED7471"/>
<path d="M147.53 195.821C147.501 195.821 147.863 198.271 147.863 198.271H155.05L155.248 196.084L147.53 195.821Z" fill="#263238"/>
<path d="M150.908 88.4565C152.579 92.9651 142.754 98.2773 142.754 98.2773L138.498 92.8213C138.498 92.8213 141.36 87.157 144.832 84.6075C149.122 81.4629 149.633 85.0241 150.908 88.4565Z" fill="#ED7471"/>
<path opacity="0.4" d="M150.908 88.4565C152.579 92.9651 142.754 98.2773 142.754 98.2773L138.498 92.8213C138.498 92.8213 141.36 87.157 144.832 84.6075C149.122 81.4629 149.633 85.0241 150.908 88.4565Z" fill="black"/>
<path d="M189.407 54.2276C199.294 54.2276 207.308 49.1201 207.308 42.8196C207.308 36.5192 199.294 31.4116 189.407 31.4116C179.521 31.4116 171.507 36.5192 171.507 42.8196C171.507 49.1201 179.521 54.2276 189.407 54.2276Z" fill="#ED7471"/>
<path d="M182.95 48.5635C181.77 48.5597 180.63 48.1404 179.729 47.3793C178.829 46.6183 178.225 45.5641 178.024 44.402C177.827 43.1433 178.111 41.8565 178.82 40.7976C179.528 39.7388 180.61 38.9857 181.848 38.6881C182.865 38.4539 183.93 38.5441 184.892 38.9463C185.855 39.3484 186.667 40.0422 187.215 40.93L198.707 38.5592C199.149 38.4624 199.611 38.5359 200.001 38.7648C200.391 38.9938 200.68 39.3614 200.811 39.7942C200.871 40.0218 200.884 40.2592 200.849 40.492C200.814 40.7248 200.732 40.948 200.609 41.1481C200.485 41.3482 200.321 41.5209 200.128 41.6557C199.935 41.7905 199.717 41.8845 199.486 41.932L199.189 41.9915C199.144 41.9994 199.103 42.0174 199.067 42.0441C199.03 42.0707 199.001 42.1053 198.98 42.1452C198.962 42.1858 198.952 42.2297 198.952 42.2742C198.952 42.3187 198.962 42.3626 198.98 42.4032L199.184 42.9289C199.252 43.0993 199.258 43.2882 199.202 43.4629C199.146 43.6377 199.031 43.7873 198.876 43.8862C198.754 43.9615 198.651 44.0637 198.575 44.1849C198.498 44.3061 198.45 44.4431 198.435 44.5856C198.42 44.7491 198.354 44.9038 198.246 45.0276C198.139 45.1514 197.994 45.238 197.835 45.275L197.601 45.3246C197.44 45.3545 197.273 45.3321 197.125 45.2608C196.977 45.1894 196.855 45.0728 196.778 44.9278C196.675 44.7548 196.521 44.6182 196.336 44.5371C196.152 44.4561 195.947 44.4345 195.75 44.4754C195.553 44.5164 195.374 44.6178 195.237 44.7656C195.1 44.9134 195.013 45.1001 194.987 45.2998C194.974 45.4623 194.909 45.6161 194.802 45.7392C194.695 45.8622 194.551 45.948 194.392 45.9843L194.159 46.0339C193.998 46.063 193.831 46.0402 193.683 45.969C193.535 45.8977 193.414 45.7816 193.336 45.6371C193.262 45.5141 193.161 45.4087 193.042 45.3282C192.923 45.2477 192.788 45.194 192.646 45.1708C192.456 45.1479 192.28 45.0561 192.152 44.9127C192.024 44.7693 191.953 44.5842 191.952 44.3921V43.8267C191.95 43.7824 191.938 43.7392 191.918 43.6998C191.898 43.6604 191.869 43.6259 191.834 43.5986C191.8 43.5713 191.759 43.5518 191.716 43.5415C191.673 43.5312 191.628 43.5304 191.585 43.539L187.919 44.2929C187.77 45.3084 187.311 46.2532 186.606 46.9987C185.9 47.7442 184.982 48.2542 183.976 48.4593C183.638 48.5284 183.294 48.5633 182.95 48.5635ZM181.958 39.1395C180.833 39.4023 179.849 40.0815 179.205 41.0405C178.56 41.9995 178.304 43.167 178.486 44.3078C178.681 45.3692 179.249 46.3257 180.088 47.0043C180.927 47.683 181.981 48.0389 183.06 48.0077C184.139 47.9766 185.171 47.5604 185.969 46.8344C186.768 46.1085 187.28 45.1207 187.414 44.0499V43.8713L191.456 43.0529C191.572 43.0249 191.693 43.023 191.809 43.0474C191.926 43.0719 192.036 43.122 192.131 43.1942C192.226 43.2664 192.304 43.3588 192.359 43.4648C192.413 43.5707 192.444 43.6876 192.448 43.8068V44.3723C192.449 44.4396 192.473 44.5045 192.517 44.556C192.56 44.6075 192.62 44.6425 192.686 44.655C192.903 44.6861 193.11 44.7661 193.291 44.889C193.472 45.0118 193.623 45.1744 193.733 45.3643C193.759 45.4178 193.801 45.4618 193.854 45.4903C193.906 45.5187 193.966 45.5301 194.025 45.523L194.253 45.4734C194.311 45.4585 194.363 45.4254 194.4 45.3789C194.438 45.3325 194.459 45.2752 194.462 45.2155C194.493 44.9067 194.622 44.6159 194.829 44.385C195.036 44.1541 195.312 43.9952 195.616 43.9312C195.919 43.8671 196.235 43.9013 196.518 44.0287C196.801 44.1562 197.036 44.3703 197.19 44.6401C197.215 44.6932 197.257 44.7371 197.308 44.7656C197.36 44.794 197.419 44.8056 197.477 44.7988L197.715 44.7492C197.772 44.7335 197.823 44.6999 197.859 44.6536C197.896 44.6072 197.917 44.5503 197.919 44.4913C197.943 44.2735 198.017 44.0643 198.135 43.8794C198.253 43.6946 198.411 43.5392 198.598 43.4249C198.653 43.3855 198.693 43.3289 198.712 43.2643C198.731 43.1996 198.727 43.1304 198.703 43.0678L198.499 42.542C198.457 42.4336 198.439 42.3174 198.447 42.2014C198.454 42.0854 198.487 41.9724 198.543 41.8704C198.599 41.7683 198.676 41.6797 198.769 41.6107C198.863 41.5416 198.971 41.4939 199.084 41.4707L199.387 41.4062C199.551 41.3713 199.706 41.3037 199.843 41.2075C199.98 41.1113 200.096 40.9884 200.184 40.8463C200.273 40.7041 200.332 40.5456 200.358 40.3801C200.383 40.2147 200.375 40.0458 200.334 39.8835C200.238 39.5713 200.026 39.3074 199.743 39.1445C199.46 38.9817 199.125 38.932 198.807 39.0056L186.992 41.4608L186.903 41.307C186.428 40.4619 185.691 39.7944 184.803 39.4051C183.916 39.0159 182.926 38.9261 181.982 39.1494L181.958 39.1395ZM182.95 46.7184C182.333 46.7252 181.729 46.5529 181.209 46.2224C180.594 45.8186 180.138 45.2139 179.918 44.5116C179.699 43.8092 179.731 43.0526 180.007 42.3707C180.283 41.6887 180.787 41.1238 181.434 40.772C182.08 40.4203 182.828 40.3036 183.551 40.4418C184.273 40.5801 184.926 40.9646 185.397 41.53C185.867 42.0954 186.128 42.8066 186.133 43.5424C186.138 44.2781 185.888 44.9929 185.425 45.5648C184.962 46.1367 184.315 46.5304 183.594 46.6787C183.383 46.7169 183.169 46.7335 182.955 46.7283L182.95 46.7184ZM182.95 40.8606C182.765 40.8616 182.58 40.8799 182.399 40.9152C182.053 40.9888 181.726 41.1297 181.435 41.3299C181.144 41.5302 180.895 41.7858 180.703 42.0822C180.51 42.3785 180.378 42.7099 180.314 43.0573C180.25 43.4047 180.255 43.7614 180.328 44.1069C180.402 44.4525 180.543 44.7801 180.743 45.0712C180.943 45.3623 181.199 45.6111 181.495 45.8034C181.792 45.9956 182.123 46.1277 182.47 46.1919C182.818 46.2561 183.174 46.2513 183.52 46.1777C184.039 46.0697 184.514 45.8106 184.886 45.433C185.257 45.0553 185.509 44.5761 185.608 44.0557C185.708 43.5353 185.652 42.9971 185.446 42.5088C185.24 42.0205 184.895 41.6041 184.452 41.312C184.013 41.0199 183.497 40.8662 182.969 40.8705L182.95 40.8606Z" fill="white"/>
<path opacity="0.6" d="M174.84 60.9187C178.089 60.9187 180.723 59.2399 180.723 57.169C180.723 55.098 178.089 53.4192 174.84 53.4192C171.591 53.4192 168.958 55.098 168.958 57.169C168.958 59.2399 171.591 60.9187 174.84 60.9187Z" fill="#ED7471"/>
<path opacity="0.3" d="M165.48 62.4565C166.815 62.4565 167.896 61.7681 167.896 60.9189C167.896 60.0698 166.815 59.3813 165.48 59.3813C164.146 59.3813 163.065 60.0698 163.065 60.9189C163.065 61.7681 164.146 62.4565 165.48 62.4565Z" fill="#ED7471"/>
</svg>
